<svg width="788" height="525" viewBox="0 0 788 525" fill="none" xmlns="http://www.w3.org/2000/svg">
<g clip-path="url(#clip0_2_716)">
<path d="M194.649 257.381C194.662 257.053 194.82 256.909 195.122 256.909L203.934 257.171C204.801 257.197 205.55 257.329 206.154 257.565C206.758 257.801 207.244 258.129 207.612 258.549C207.979 258.969 208.229 259.455 208.387 260.046C208.544 260.623 208.61 261.266 208.584 261.975L208.505 264.39C208.479 265.099 208.373 265.742 208.19 266.306C208.006 266.871 207.717 267.356 207.323 267.75C206.929 268.144 206.43 268.433 205.812 268.643C205.195 268.839 204.447 268.931 203.58 268.905L198.839 268.761L197.854 265.991H197.722L197.644 268.734L194.321 268.629L194.649 257.381ZM197.722 265.689L203.357 265.86C203.987 265.873 204.447 265.755 204.722 265.479C204.998 265.204 205.143 264.718 205.169 264.009L205.235 262.041C205.261 261.306 205.143 260.807 204.88 260.531C204.617 260.256 204.171 260.111 203.54 260.098L198.156 259.941C198.077 259.941 198.024 259.967 197.972 260.006C197.932 260.059 197.906 260.111 197.906 260.177L197.722 265.689Z" fill="#F1F1F4"/>
<path d="M213.351 262.408H213.233L213.128 265.926C213.128 266.07 213.193 266.149 213.351 266.162L223.254 266.464L223.162 269.509L210.173 269.115C209.858 269.102 209.713 268.944 209.713 268.616L210.041 257.841C210.055 257.512 210.212 257.368 210.527 257.368L223.148 257.749C223.477 257.762 223.634 257.919 223.621 258.247L223.529 261.292L220.417 262.342H220.285L220.338 260.781C220.338 260.662 220.285 260.597 220.18 260.597L213.522 260.4C213.43 260.4 213.377 260.426 213.351 260.466C213.325 260.518 213.312 260.571 213.312 260.623L213.272 262.093L218.762 262.264L218.683 264.652L214.086 264.508L213.351 262.408Z" fill="#F1F1F4"/>
<path d="M235.362 262.198H235.231L235.271 260.912C235.271 260.781 235.218 260.715 235.087 260.715L228.888 260.531C228.664 260.531 228.507 260.571 228.415 260.663C228.323 260.754 228.284 260.899 228.27 261.082L228.257 261.371C228.244 261.594 228.284 261.739 228.362 261.804C228.441 261.87 228.586 261.922 228.796 261.962L236.059 263.196C236.518 263.274 236.912 263.392 237.227 263.524C237.543 263.668 237.805 263.852 238.002 264.075C238.199 264.298 238.331 264.574 238.409 264.902C238.488 265.23 238.514 265.611 238.501 266.057L238.475 266.989C238.462 267.474 238.383 267.894 238.252 268.262C238.12 268.629 237.923 268.931 237.648 269.181C237.372 269.43 237.004 269.601 236.571 269.719C236.124 269.837 235.586 269.876 234.942 269.863L224.488 269.548L224.58 266.503L233.957 266.792C234.233 266.805 234.43 266.752 234.522 266.661C234.614 266.556 234.666 266.385 234.68 266.122L234.693 265.794C234.693 265.584 234.666 265.44 234.601 265.361C234.535 265.282 234.404 265.217 234.194 265.191L227.18 264.088C226.708 264.009 226.3 263.904 225.972 263.76C225.644 263.616 225.368 263.445 225.158 263.222C224.948 262.999 224.803 262.736 224.711 262.421C224.619 262.106 224.593 261.739 224.606 261.306L224.633 260.479C224.659 259.626 224.908 258.982 225.368 258.523C225.841 258.064 226.589 257.854 227.653 257.893L238.094 258.208C238.423 258.221 238.593 258.392 238.58 258.733L238.501 261.148L235.362 262.198Z" fill="#F1F1F4"/>
<path d="M239.775 270.007L240.13 258.274L243.453 258.379L243.098 270.112L239.775 270.007Z" fill="#F1F1F4"/>
<path d="M255.43 265.453C255.43 265.283 255.43 265.099 255.417 264.915C255.404 264.731 255.391 264.561 255.378 264.416V264.272L258.674 264.377L258.503 270.139C258.49 270.441 258.359 270.585 258.083 270.572L249.244 270.309C248.378 270.283 247.629 270.152 247.025 269.916C246.421 269.679 245.935 269.351 245.567 268.931C245.199 268.511 244.937 268.026 244.792 267.435C244.635 266.858 244.569 266.214 244.595 265.506L244.674 263.091C244.7 262.382 244.805 261.739 244.989 261.174C245.173 260.61 245.462 260.124 245.856 259.731C246.25 259.337 246.749 259.048 247.366 258.838C247.984 258.641 248.732 258.549 249.599 258.576L258.385 258.838C258.7 258.851 258.845 259.009 258.845 259.337L258.766 261.87L255.653 262.907H255.522L255.562 261.778C255.562 261.673 255.522 261.621 255.417 261.608L249.809 261.437C249.481 261.424 249.218 261.45 248.995 261.503C248.772 261.555 248.588 261.647 248.443 261.791C248.299 261.936 248.194 262.119 248.115 262.369C248.049 262.605 247.997 262.907 247.984 263.261L247.918 265.322C247.892 266.031 248.01 266.529 248.273 266.818C248.535 267.107 248.982 267.264 249.612 267.278L255.181 267.448C255.299 267.448 255.365 267.396 255.365 267.264L255.43 265.453Z" fill="#F1F1F4"/>
<path d="M265.7 259.048C265.95 259.061 266.121 259.101 266.226 259.179C266.331 259.258 266.41 259.376 266.502 259.547L270.704 268.118C270.77 268.249 270.875 268.314 271.006 268.314H271.177C271.348 268.314 271.44 268.236 271.44 268.065L271.702 259.232L274.723 259.324L274.382 270.598C274.368 270.913 274.224 271.058 273.922 271.044L269.141 270.9C268.918 270.9 268.747 270.861 268.642 270.782C268.524 270.716 268.432 270.585 268.34 270.401L263.98 261.844C263.914 261.712 263.822 261.647 263.678 261.647H263.52C263.35 261.647 263.258 261.726 263.258 261.896L262.995 270.716L259.974 270.624L260.316 259.363C260.329 259.035 260.473 258.891 260.775 258.891L265.7 259.048Z" fill="#F1F1F4"/>
<path d="M497.309 400.503C576.816 321.046 576.816 192.221 497.309 112.765C417.802 33.3078 288.895 33.3078 209.388 112.765C129.88 192.221 129.88 321.046 209.388 400.503C288.895 479.96 417.802 479.96 497.309 400.503Z" fill="#E0F3FF"/>
<path d="M203.698 243.613C198.694 235.003 189.842 231.459 189.842 231.459L186.756 232.903L193.704 245.503C192.771 250.346 189.448 253.01 189.448 253.01L189.435 252.984C189.435 252.984 185.259 253.824 180.938 251.422L175.724 238.009L172.638 239.452C172.638 239.452 169.683 248.509 173.071 257.88C173.071 257.88 174.384 260.912 174.621 261.187C175.842 262.618 179.034 264.259 185.206 263.878L206.482 304.447C204.709 307.492 204.407 311.312 206.009 314.724C208.61 320.289 215.229 322.691 220.798 320.092C226.366 317.494 228.77 310.879 226.169 305.314C224.567 301.888 221.441 299.67 217.974 299.079L200.493 256.751C204.657 252.367 205.537 248.915 205.221 246.92C205.169 246.487 203.698 243.613 203.698 243.613ZM221.192 313.582L215.557 316.22L210.462 312.664L211 306.469L216.634 303.83L221.73 307.387L221.192 313.582Z" fill="url(#paint0_linear_2_716)"/>
<path d="M205.235 246.921C200.231 238.311 191.379 234.767 191.379 234.767L188.293 236.211L195.24 248.811C194.308 253.654 190.985 256.318 190.985 256.318L190.972 256.292C190.972 256.292 186.795 257.132 182.475 254.73L177.261 241.316L174.174 242.76C174.174 242.76 171.219 251.816 174.608 261.187C174.608 261.187 179.414 267.632 186.73 267.186L208.006 307.755C206.233 310.8 205.931 314.619 207.533 318.032C210.133 323.597 216.753 325.999 222.321 323.4C227.89 320.801 230.293 314.186 227.693 308.621C226.09 305.196 222.965 302.977 219.497 302.387L202.017 260.059C207.1 254.743 205.235 246.921 205.235 246.921ZM222.741 316.89L217.107 319.528L212.011 315.971L212.55 309.776L218.184 307.138L223.28 310.695L222.741 316.89Z" fill="url(#paint1_linear_2_716)"/>
<path d="M175.727 238.014L172.645 239.453L174.191 242.758L177.272 241.319L175.727 238.014Z" fill="#E5E2FF"/>
<path d="M189.829 231.454L186.747 232.893L188.293 236.199L191.375 234.76L189.829 231.454Z" fill="#E5E2FF"/>
<path d="M221.207 313.577L215.567 316.21L217.113 319.516L222.753 316.882L221.207 313.577Z" fill="#E5E2FF"/>
<path d="M191.3 270.19L208.492 303.2C213.01 303.41 215.426 299.958 215.426 299.958L201.439 265.452C195.161 265.229 191.3 270.19 191.3 270.19ZM214.1 300.233C213.601 300.667 212.839 301.244 211.88 301.69C211.118 302.045 210.317 302.281 209.503 302.399L192.285 270.072C193.126 269.324 194.57 268.222 196.422 267.355C197.814 266.712 199.233 266.292 200.677 266.095L214.1 300.233Z" fill="url(#paint2_linear_2_716)"/>
<path d="M214.1 300.234L215.426 299.959C215.426 299.959 213.456 303.45 208.492 303.201L209.503 302.4C209.503 302.4 211.959 302.111 214.1 300.234Z" fill="#E5E2FF"/>
<path opacity="0.62" d="M191.3 270.191L192.285 270.06C192.285 270.06 195.227 267.015 200.677 266.096L201.426 265.466C201.426 265.466 199.233 265.086 195.818 266.674C192.416 268.262 191.3 270.191 191.3 270.191Z" fill="url(#paint3_linear_2_716)"/>
<path opacity="0.62" d="M186.743 267.172C186.743 267.172 195.004 265.702 202.056 260.046L204.289 265.453C204.289 265.453 201.754 262.946 196.186 265.217C189.685 267.868 190.039 273.092 190.039 273.092L186.743 267.172Z" fill="url(#paint4_linear_2_716)"/>
<path opacity="0.5" d="M204.289 265.466C202.7 264.324 200.887 264.298 200.887 264.298L217.527 304.461L219.537 302.387L204.289 265.466Z" fill="url(#paint5_linear_2_716)"/>
<path d="M204.289 265.466C204.289 265.466 202.542 270.834 207.559 273.381L204.289 265.466Z" fill="white"/>
<path d="M454.715 525H392.989C386.527 489.142 371.503 442.483 371.503 442.483C367.852 440.317 360.72 442.982 360.72 442.982L338.157 525H281.762C278.768 474.39 306.479 416.942 306.479 416.942L306.466 416.929C306.374 416.732 305.494 414.973 305.731 413.792C305.823 413.28 306.768 412.309 307.832 411.351C309.356 409.959 311.168 408.568 311.168 408.568L416.379 407.912C416.379 407.912 417.443 408.45 418.796 409.264H418.809C421.107 410.655 424.22 412.808 424.22 414.383C424.22 416.548 423.366 417.952 423.156 418.267L423.103 418.333C445.667 460.884 454.715 525 454.715 525Z" fill="url(#paint6_linear_2_716)"/>
<path opacity="0.5" d="M334.02 488.184C326.468 520.892 310.078 545.042 297.404 542.128C284.731 539.214 280.594 510.326 288.145 477.619C295.697 444.911 312.087 420.761 324.761 423.675C337.422 426.589 341.572 455.464 334.02 488.184Z" fill="url(#paint7_radial_2_716)"/>
<path opacity="0.5" d="M443.014 475.952C452.076 508.279 449.278 537.324 436.762 540.829C424.246 544.333 406.752 520.971 397.677 488.644C388.615 456.317 391.413 427.271 403.929 423.767C416.458 420.262 433.952 443.625 443.014 475.952Z" fill="url(#paint8_radial_2_716)"/>
<path d="M330.855 525.052L330.211 524.947C337.395 482.685 355.611 447.247 355.795 446.893L355.874 446.801L360.51 442.746L360.943 443.244L356.347 447.261C355.519 448.836 337.881 483.669 330.855 525.052Z" fill="url(#paint9_linear_2_716)"/>
<path d="M401.368 525.052C394.328 483.643 376.204 448.468 375.39 446.906L371.279 443.218L371.713 442.733L375.942 446.552C376.126 446.906 394.827 482.685 402.011 524.947L401.368 525.052Z" fill="url(#paint10_linear_2_716)"/>
<path opacity="0.76" d="M424.22 414.383C424.22 416.548 423.366 417.952 423.156 418.267L423.104 418.333C401.197 423.281 384.531 443.717 384.531 443.717C396.469 466.607 416.379 525 416.379 525H392.989C386.527 489.143 371.503 442.483 371.503 442.483C367.852 440.318 360.72 442.982 360.72 442.982L338.157 525H323.553C328.78 490.639 344.212 448.691 344.212 448.691C329.043 431.038 306.479 416.942 306.479 416.942L306.466 416.929L303.787 415.249L305.731 413.792C315.489 423.15 346.956 435.369 347.928 435.75L307.832 411.351C309.356 409.959 311.168 408.568 311.168 408.568L416.379 407.912C416.379 407.912 417.443 408.45 418.796 409.264L390.06 425.066L424.22 414.383Z" fill="url(#paint11_linear_2_716)"/>
<path opacity="0.76" d="M371.503 442.483L383.782 434.516L380.867 442.483L378.726 466.449L371.503 442.483Z" fill="url(#paint12_linear_2_716)"/>
<path opacity="0.76" d="M360.72 442.982L347.928 435.75L320.545 423.426L355.414 446.46L357.489 454.716L360.72 442.982Z" fill="url(#paint13_linear_2_716)"/>
<path d="M395.917 196.416C395.996 196.98 396.062 197.282 396.062 197.282C395.418 199.959 394.683 202.44 393.882 204.711C391.308 212.1 388.103 217.35 385.7 220.618C383.612 223.44 382.127 224.792 382.127 224.792C362.966 218.781 353.523 200.051 349.898 190.732C349.872 190.693 349.859 190.641 349.846 190.588C349.15 188.829 348.69 187.412 348.401 186.493C348.401 186.493 348.401 186.493 348.401 186.48C348.178 185.745 348.073 185.338 348.073 185.338C348.152 185.181 348.23 185.01 348.309 184.852L348.349 184.787C348.664 184.131 348.979 183.461 349.268 182.818C351.776 177.332 353.444 172.2 354.521 168.157C355.454 164.719 355.953 162.067 356.189 160.663C356.307 159.941 356.36 159.547 356.36 159.547L365.291 164.259L396.062 180.534C395.602 183.356 395.418 186.007 395.405 188.331C395.379 189.971 395.432 191.441 395.523 192.688C395.615 194.211 395.773 195.418 395.891 196.206V196.219C395.891 196.297 395.904 196.35 395.917 196.416Z" fill="#FE9083"/>
<path d="M387.381 226.852C385.608 228.611 383.52 230.186 381.024 231.499C380.972 231.538 380.919 231.564 380.867 231.591C380.867 231.591 380.801 231.551 380.683 231.486L380.67 231.473C380 231.066 377.715 229.661 374.641 227.351C366.604 221.301 353.182 209.068 349.347 192.583C349.334 192.557 349.334 192.544 349.32 192.517C348.874 190.562 348.559 188.567 348.401 186.493C348.401 186.493 348.401 186.493 348.401 186.48C348.362 185.942 348.322 185.404 348.309 184.852C348.309 184.852 350.975 191.113 355.598 197.872C361.035 205.826 369.191 214.502 378.936 214.554C387.368 214.607 391.689 208.845 393.882 203.529C394.814 201.272 395.366 199.106 395.655 197.492C395.668 197.479 395.668 197.466 395.668 197.466C395.76 196.993 395.826 196.573 395.891 196.219V196.206C395.917 196.022 395.944 195.864 395.957 195.72C396.036 195.129 396.062 194.788 396.062 194.788C396.062 194.788 399.293 214.948 387.381 226.852Z" fill="url(#paint14_linear_2_716)"/>
<path opacity="0.5" d="M387.381 226.852C385.608 228.611 383.52 230.186 381.024 231.499H380.867L380.683 231.486L380.67 231.472C380 231.066 377.715 229.661 374.641 227.351C366.604 221.301 353.182 209.068 349.347 192.583C349.334 192.557 349.334 192.544 349.32 192.517C348.874 190.562 348.559 188.567 348.401 186.493C348.401 186.493 348.401 186.493 348.401 186.48C348.362 185.942 348.322 185.404 348.309 184.852C348.309 184.852 350.975 191.113 355.598 197.872C355.598 197.872 360.904 212.441 372.383 219.66C378.135 223.269 382.495 222.744 385.7 220.618C388.904 218.505 390.979 214.817 392.201 212.034C393.422 209.239 393.816 206.627 393.882 204.711C393.895 204.277 393.895 203.884 393.882 203.529C394.814 201.272 395.366 199.106 395.655 197.492C395.668 197.479 395.668 197.466 395.668 197.466C395.76 196.993 395.826 196.573 395.891 196.219V196.206C395.917 196.022 395.944 195.864 395.957 195.72C396.036 195.129 396.062 194.788 396.062 194.788C396.062 194.788 399.293 214.948 387.381 226.852Z" fill="url(#paint15_linear_2_716)"/>
<path d="M461.138 345.883C460.993 345.949 460.927 345.988 460.927 345.988C459.85 346.119 456.501 345.384 452.115 341.591L452.102 341.578C452.102 341.565 452.089 341.552 452.062 341.539C452.049 341.526 452.036 341.499 452.01 341.486C448.333 338.271 443.92 332.902 439.52 324.109C430.721 306.534 428.199 294.801 427.792 292.753L427.739 292.438L422.604 300.576C419.124 311.036 412.531 354.323 412.649 356.186C412.768 358.05 418.494 367.133 418.375 368.248C418.375 368.248 418.375 368.261 418.362 368.274C418.205 369.403 415.631 371.884 414.895 374.587C414.396 376.386 417.889 382.056 420.345 386.295V386.308C421.619 388.513 422.604 390.324 422.604 391.007C422.604 392.989 416.379 402.688 416.379 402.688V407.912L416.287 408.004L415.998 408.266L415.762 408.463C413.398 410.327 403.377 416.43 372.067 418.11C334.966 420.092 310.249 408.161 310.249 408.161L312.114 403.056C312.114 403.056 310.38 401.573 310.249 400.824C310.131 400.076 311.615 398.331 311.615 398.331C311.615 398.331 307.885 396.349 307.885 393.855C307.885 391.374 315.358 383.67 315.108 377.068C314.859 370.479 309.132 364.639 308.384 360.911C307.635 357.184 318.089 347.983 318.089 347.983C309.132 319.633 307.386 281.584 307.386 281.584L305.652 279.589C305.652 279.589 294.948 303.962 285.243 315.892C284.087 317.31 282.866 318.714 281.605 320.066C278.899 322.993 276.023 325.736 273.252 328.138C266.528 333.992 260.421 337.838 258.871 337.536C256.376 337.037 246.421 317.389 246.88 297.242C247.091 287.661 252.869 276.938 258.871 268.341C259.515 267.422 260.158 266.516 260.815 265.637C265.07 259.849 269.155 255.308 271.111 253.234C271.873 252.42 272.307 251.987 272.307 251.987C272.307 251.987 270.941 247.59 270.008 243.771C269.995 243.679 269.969 243.587 269.943 243.495C269.943 243.456 269.929 243.403 269.916 243.364C269.903 243.298 269.89 243.272 269.89 243.272C269.338 240.923 268.997 238.888 269.312 238.389C270.14 237.064 274.959 235.568 275.787 234.583C276.614 233.586 280.095 216.838 282.748 215.014C285.295 213.268 289.774 211.995 304.706 206.128C305.442 205.839 306.191 205.551 306.979 205.236C323.724 198.608 340.153 190.562 340.153 190.562L346.457 182.818H349.268L348.348 184.787L348.309 184.853C348.756 186.848 349.268 188.764 349.846 190.588C349.859 190.641 349.872 190.693 349.898 190.733C358.566 218.059 380.867 226.866 380.867 226.866C396.364 215.434 396.062 197.282 396.062 197.282V194.788L398.964 195.654L400.947 200.379C400.947 200.379 404.31 205.603 417.627 211.457C419.925 212.468 422.394 213.741 424.942 215.198C437.13 222.114 450.683 232.811 451.721 235.082C451.826 235.318 451.944 235.686 452.076 236.211V236.224C453.507 241.841 456.449 262.881 459.181 270.388C460.888 275.074 463.58 277.659 465.563 278.998C465.577 279.011 465.577 279.011 465.59 279.011C467.061 280.022 468.138 280.337 468.138 280.337C468.348 281.492 468.545 282.634 468.729 283.763C474.442 319.751 463.58 344.177 461.138 345.883Z" fill="url(#paint16_linear_2_716)"/>
<path opacity="0.5" d="M318.208 277.948L307.386 281.584L305.652 279.589C305.652 279.589 294.948 303.962 285.243 315.892C284.087 317.31 282.866 318.714 281.605 320.066C278.899 322.993 276.023 325.736 273.252 328.138L265.004 292.609L260.815 265.637C265.07 259.849 269.155 255.307 271.111 253.234C271.873 252.42 272.307 251.987 272.307 251.987C272.307 251.987 270.941 247.59 270.008 243.771C269.995 243.679 269.969 243.587 269.943 243.495C269.943 243.456 269.929 243.403 269.916 243.364C269.903 243.298 269.89 243.272 269.89 243.272C269.338 240.923 268.997 238.888 269.312 238.389C270.14 237.064 274.959 235.567 275.787 234.583C276.614 233.586 280.095 216.838 282.748 215.014C282.748 215.014 281.014 231.092 290.22 251.488L294.699 257.788L307.806 268.314C307.806 268.314 312.783 274.916 318.208 277.948Z" fill="url(#paint17_linear_2_716)"/>
<path d="M286.898 307.033C284.573 324.266 258.871 337.536 258.871 337.536C253.145 337.536 246.749 327.587 240.944 315.315C235.139 303.043 234.785 267.789 234.483 265.611C234.167 263.432 230.937 259.074 230.74 257.211C230.556 255.347 235.967 251.488 235.967 251.488L235.927 251.396L235.888 251.304C235.323 250.097 232.145 243.285 232.368 242.038C232.618 240.673 238.698 237.694 238.698 237.694L239.079 244.401C239.079 244.401 253.237 241.723 258.031 230.764L258.871 227.404L261.235 228.979V243.403C261.235 243.403 261.721 245.647 262.47 245.647C263.218 245.647 268.734 242.891 269.89 243.272C271.059 243.652 272.201 251.37 273.751 252.354C275.288 253.352 279.399 256.213 280.016 257.578C280.292 258.195 280.318 260.413 280.344 263.025C280.384 266.227 280.41 270.007 280.883 272.134C281.763 275.979 289.222 289.787 286.898 307.033Z" fill="url(#paint18_linear_2_716)"/>
<path d="M521.971 292.268C520.815 294.092 515.01 297.911 513.513 299.408C512.016 300.891 513.513 305.799 513.513 305.799C489.125 331.669 463.699 344.623 461.138 345.883C460.993 345.949 460.927 345.988 460.927 345.988C445.614 335.698 446.927 318.754 452.01 304.474C456.869 290.771 465.196 279.523 465.563 279.038L465.577 279.024C465.577 279.024 465.577 279.024 465.59 279.011C465.866 278.906 470.239 277.095 473.365 276.859C474.402 276.78 475.348 277.187 476.241 277.751C478.106 278.906 479.682 280.731 481.205 279.969C483.451 278.841 488.468 266.989 491.87 266.661C494.247 266.438 497.543 268.853 499.736 270.231C500.695 270.834 501.444 271.241 501.811 271.136C503.059 270.808 507.288 265.742 507.63 265.611C507.958 265.466 509.888 266.884 509.888 266.884L508.536 268.564C510.611 280.508 517.414 288.54 517.414 288.54L521.971 281.873C521.971 281.873 523.14 290.443 521.971 292.268Z" fill="url(#paint19_linear_2_716)"/>
<path d="M395.983 195.904C395.957 196.074 395.931 196.245 395.917 196.416C395.852 196.77 395.773 197.111 395.668 197.466C395.668 197.466 395.668 197.479 395.655 197.492C394.092 203.28 387.775 209.199 379.803 206.351C371.095 203.241 354.521 168.158 354.521 168.158L356.189 160.663L395.523 192.688L395.957 195.72L395.983 195.904Z" fill="#CB4D7A"/>
<path d="M265.004 189.486C265.004 189.486 262.601 176.216 263.678 166.438C264.755 156.66 263.402 145.543 263.402 145.543C263.402 145.543 261.025 144.546 259.278 145.543C257.532 146.541 253.473 156.647 255.299 164.771C257.124 172.896 255.719 192.373 255.719 192.373H252.987L247.012 184.17L244.109 183.343C244.109 183.343 227.391 199.093 227.64 208.464L229.82 216.799L250.4 216.09L263.836 200.76L265.004 189.486Z" fill="#EE8183"/>
<path d="M244.096 183.343C244.096 183.343 244.53 193.791 246.867 202.742C246.867 202.742 246.473 206.404 242.179 206.653L241.115 205.472C241.115 205.472 240.366 209.632 236.571 209.947L232.959 206.338L233.892 209.317C233.892 209.317 232.591 212.494 229.164 212.362C229.164 212.362 223.437 207.887 223.07 202.046L228.73 197.256V193.594L235.454 188.869L235.573 186.191C235.599 186.204 239.539 183.291 244.096 183.343Z" fill="url(#paint20_linear_2_716)"/>
<path opacity="0.6" d="M263.914 163.629C263.914 163.629 262.903 166.189 261.472 167.186C260.04 168.184 255.89 168.945 255.89 168.945L255.706 192.386H252.974L246.999 184.183C246.999 184.183 250.032 188.869 250.216 192.386L247.852 193.541L245.803 186.519L244.832 191.573L245.803 197.859C245.803 197.859 249.349 194.814 255.759 194.696L256.717 196.442C256.717 196.442 245.121 206.036 242.454 211.693C242.454 211.693 248.181 204.422 261.248 196.403L262.496 192.544L264.151 183.343C264.124 183.343 262.562 170.087 263.914 163.629Z" fill="url(#paint21_linear_2_716)"/>
<path d="M273.633 204.488C272.556 207.716 261.275 221.143 260.027 224.057C258.779 226.958 258.031 230.764 258.031 230.764C252.488 242.747 239.079 244.401 239.079 244.401L238.462 233.586C238.462 233.586 231.252 229.438 230.03 227.168L230.017 227.128L229.873 226.747C229.505 224.634 229.82 216.799 229.82 216.799L242.441 211.693C247.918 204.606 261.235 196.403 261.235 196.403L261.852 192.688C252.291 187.989 253.894 173.775 255.509 172.029C257.124 170.297 260.106 170.297 260.106 170.297C260.106 170.297 263.599 181.729 265.832 187.084C268.078 192.426 274.71 201.259 273.633 204.488Z" fill="url(#paint22_linear_2_716)"/>
<path d="M235.599 186.204C235.599 186.204 237.004 199.264 241.141 205.472C241.141 205.472 235.901 198.962 235.481 188.869L235.599 186.204Z" fill="#E28183"/>
<path d="M228.756 193.607C228.756 193.607 230.122 204.12 236.597 209.961C236.597 209.961 230.871 207.099 228.756 197.282V193.607Z" fill="#E28183"/>
<path opacity="0.91" d="M261.774 221.274C261.774 221.274 247.55 235.082 238.462 233.586L239.079 244.401C239.079 244.401 254.012 243.101 258.871 227.404C258.871 227.404 260.618 222.889 261.774 221.274Z" fill="url(#paint23_linear_2_716)"/>
<path d="M562.579 240.043C562.579 240.043 549.512 263.918 534.211 271.254H528.984L516.915 289.538C516.915 289.538 509.114 284.642 508.536 268.564C508.536 268.564 511.267 265.716 511.937 262.5C511.937 262.5 507.63 259.114 506.461 256.633C505.305 254.139 504.885 246.684 504.057 243.613C503.23 240.542 496.177 234.163 494.601 233.336C493.025 232.509 485.894 232.089 485.894 232.089C485.894 232.089 484.896 229.517 485.894 228.283C486.892 227.036 498.003 222.718 504.057 226.866C504.057 226.866 504.478 230.016 505.134 231.683C505.804 233.336 511.11 239.216 511.937 239.216C512.765 239.216 516.337 236.237 517.913 233.914C519.423 231.683 527.448 214.397 529.391 208.556C529.405 208.491 529.418 208.438 529.444 208.386C529.47 208.294 529.51 208.202 529.523 208.123C529.549 208.058 529.562 208.005 529.575 207.953C529.589 207.926 529.602 207.913 529.602 207.887C531.099 202.834 539.806 193.134 544.455 190.483C544.455 190.483 546.439 189.984 547.516 192.465C547.516 192.465 543.786 203.083 539.885 209.383C539.228 210.446 538.519 211.693 537.784 213.032C537.784 213.032 537.784 213.032 537.771 213.032C534.448 219.135 530.705 227.128 530.166 228.296L530.101 228.441L532.176 229.504L537.784 224.188L543.536 218.741L556.735 232.667L555.435 234.321L551.311 239.61L553.399 239.991L558.259 234.623L562.579 240.043Z" fill="url(#paint24_linear_2_716)"/>
<path opacity="0.6" d="M559.519 245.122L555.343 251.252C555.343 251.252 532.425 233.586 527.448 232.089C522.47 230.593 520.645 231.591 520.645 231.591L515.51 238.14C515.51 238.14 524.966 246.514 525.793 257.788C525.793 257.788 522.641 243.534 511.937 239.216C512.765 239.216 516.337 236.237 517.913 233.914C519.423 231.682 527.448 214.397 529.392 208.556C529.129 209.554 528.787 211.496 529.602 213.032C530.731 215.119 537.377 213.15 537.771 213.032C537.784 213.032 537.784 213.032 537.784 213.032L530.166 228.296L530.101 228.441L532.176 229.504L537.784 224.188L534.973 230.711L555.435 234.321L551.311 239.61L553.399 239.991L559.519 245.122Z" fill="url(#paint25_linear_2_716)"/>
<path d="M543.536 218.741C543.536 218.741 547.516 218.164 550.09 223.296L549.512 224.949C549.512 224.949 553.386 225.711 557.142 231.997C557.142 231.997 553.82 238.048 545.611 240.778C545.611 240.778 541.789 239.702 541.133 236.473L541.881 234.399L538.9 236.644C538.9 236.644 535.328 237.72 533.752 232.418L543.536 218.741Z" fill="url(#paint26_linear_2_716)"/>
<path d="M563.775 238.389C563.775 238.389 564.602 234.57 560.544 232.089L552.664 240.791C552.664 240.791 552.9 243.587 556.315 244.191C556.315 244.191 561.7 242.366 563.775 238.389Z" fill="url(#paint27_linear_2_716)"/>
<path opacity="0.91" d="M506.461 256.633C506.461 256.633 515.588 266.818 528.984 271.254L523.206 279.996L511.162 264.705L511.937 262.5C511.937 262.5 507.117 258.878 506.461 256.633Z" fill="url(#paint28_linear_2_716)"/>
<path d="M549.512 224.962C549.512 224.962 545.69 231.263 541.881 234.413L541.133 236.486C541.133 236.486 548.54 231.486 551.259 225.724C551.272 225.724 550.379 225.081 549.512 224.962Z" fill="#E28183"/>
<path opacity="0.5" d="M521.971 292.267C520.815 294.092 515.011 297.911 513.513 299.407C512.016 300.891 513.513 305.799 513.513 305.799C489.125 331.669 463.699 344.623 461.138 345.883C460.993 345.949 460.927 345.988 460.927 345.988C458.931 346.237 449.226 343.507 439.52 324.109C430.721 306.534 428.199 294.801 427.792 292.753L427.74 292.438L429.88 289.538L433.058 253.733L435.291 260.938C443.749 250.74 451.721 235.082 451.721 235.082L452.076 236.211V236.224C453.507 241.841 456.449 262.881 459.181 270.388C460.888 275.074 463.58 277.659 465.564 278.998L465.577 279.024L465.564 279.038C457.775 286.138 453.914 296.349 452.01 304.474C450.263 311.929 450.145 317.638 450.145 317.638C450.145 317.638 452.299 307.532 459.102 295.378C461.571 290.955 465.17 287.004 468.729 283.762C471.408 281.321 474.074 279.274 476.241 277.751C478.106 278.906 479.682 280.731 481.205 279.969C470.961 295.339 471.211 325.762 480.838 319.961C490.451 314.16 492.658 301.849 492.658 301.849C490.386 286.847 491.068 269.929 492.894 266.713C495.114 266.792 501.457 271.241 501.825 271.136C501.247 288.789 509.547 300.576 509.547 300.576L515.024 292.11C507.052 278.683 507.643 265.611 507.643 265.611C507.971 265.466 509.902 266.884 509.902 266.884L508.549 268.564C510.624 280.507 517.427 288.54 517.427 288.54L521.984 281.872C521.971 281.872 523.14 290.443 521.971 292.267Z" fill="url(#paint29_linear_2_716)"/>
<path opacity="0.5" d="M416.379 402.688V407.912L416.287 408.004L415.998 408.266L415.762 408.463C413.398 410.327 403.377 416.43 372.067 418.11C334.966 420.092 310.249 408.161 310.249 408.161L312.114 403.056C312.114 403.056 310.38 401.573 310.249 400.824C310.131 400.076 311.615 398.331 311.615 398.331C311.615 398.331 307.885 396.349 307.885 393.855C307.885 391.611 313.979 385.114 314.964 379.011C315.082 378.354 315.134 377.711 315.108 377.068C314.859 370.506 309.185 364.691 308.397 360.964C308.384 360.924 308.384 360.911 308.384 360.911C307.635 357.184 318.089 347.983 318.089 347.983C309.132 319.633 307.386 281.584 307.386 281.584L305.652 279.589C305.652 279.589 294.948 303.962 285.243 315.892C275.537 327.836 261.353 338.034 258.871 337.536C253.145 337.536 246.749 327.587 240.944 315.315C235.139 303.043 234.785 267.789 234.483 265.611C234.167 263.432 230.937 259.074 230.74 257.211C236.965 267.908 246.88 264.758 246.88 264.758C239.696 264.915 235.967 251.488 235.967 251.488L235.927 251.396L235.888 251.304L232.381 242.051C232.775 242.497 240.984 251.672 248.916 246.015C257.046 240.214 261.235 228.979 261.235 228.979V243.403C261.235 243.403 261.721 245.648 262.47 245.648C261.984 252.289 260.578 260.374 258.871 268.341C255.181 285.574 250.124 302.216 250.124 302.216C250.124 302.216 263.836 294.761 268.655 275.861C270.954 266.818 271.335 258.956 271.111 253.234C270.914 248.338 270.271 244.991 270.008 243.771C269.995 243.679 269.969 243.587 269.943 243.495C269.943 243.456 269.929 243.403 269.916 243.364C269.916 243.337 269.903 243.311 269.903 243.298L271.23 246.107L273.751 252.354C276.68 276.609 270.639 313.163 270.639 313.163C279.438 302.216 281.263 278.014 280.883 272.134C280.712 269.325 280.489 265.86 280.344 263.025C280.147 259.927 280.016 257.578 280.016 257.578L298.022 268.314L294.699 257.788L307.806 268.314C307.806 268.314 319.587 282.489 331.695 284.143C343.804 285.81 388.261 284.812 388.261 284.812C388.261 284.812 349.609 287.293 338.328 290.614C327.046 293.934 324.892 297.741 324.892 297.741C333.048 339.203 378.187 353.181 379.593 353.601C338.643 347.458 319.587 312.664 319.587 312.664C319.587 312.664 318.917 332.233 322.069 339.688C325.221 347.143 343.804 365.387 367.694 369.193C369.703 369.508 371.686 369.705 373.643 369.797C393.79 370.742 410.469 360.452 412.177 359.349C412.268 359.284 412.321 359.258 412.321 359.258C412.321 359.258 412.308 359.284 412.282 359.323C411.638 360.307 403.377 371.91 370.019 373.183C367.996 373.262 366.026 373.249 364.109 373.17C364.095 373.17 364.082 373.17 364.082 373.17C333.166 371.871 317.42 351.291 317.42 351.291C317.42 351.291 305.98 357.433 313.283 366.542C313.361 366.634 313.44 366.739 313.519 366.831C315.673 369.311 320.414 372.343 326.022 375.467C326.179 375.559 326.337 375.651 326.482 375.729C333.258 379.47 341.204 383.329 347.35 386.518C347.39 386.531 347.416 386.544 347.442 386.557C351.198 388.513 354.285 390.193 356.005 391.453C356.018 391.453 356.018 391.466 356.018 391.466C357.752 392.726 358.107 393.54 356.412 393.737C347.784 394.734 315.108 387.607 313.782 389.589C312.455 391.584 315.397 396.716 315.397 396.716C345.394 411.574 409.576 404.25 411.599 404.027C357.883 417.769 313.939 400.365 313.939 400.365L315.397 405.51C315.397 405.51 339.326 413.792 367.523 414.461C395.734 415.117 413.319 407.912 413.319 407.912L416.379 402.688Z" fill="url(#paint30_linear_2_716)"/>
<path opacity="0.5" d="M394.407 284.642C394.407 284.642 415.775 285.797 429.893 289.538L422.618 300.576C422.604 300.576 411.651 290.942 394.407 284.642Z" fill="url(#paint31_linear_2_716)"/>
<path opacity="0.5" d="M414.37 343.494C414.37 343.494 401.039 354.611 387.932 359.743C374.825 364.888 362.217 365.374 362.217 365.374C362.217 365.374 369.756 367.618 388.287 364.626C406.831 361.646 413.175 351.606 413.175 351.606L414.37 343.494Z" fill="url(#paint32_linear_2_716)"/>
<path opacity="0.5" d="M420.345 386.295C395.681 392.674 364.371 383.539 364.634 382.423C364.897 381.307 373.21 382.922 392.49 379.063C411.178 375.322 417.955 368.681 418.362 368.274C418.205 369.403 415.631 371.884 414.895 374.587C414.396 376.386 417.89 382.056 420.345 386.295Z" fill="url(#paint33_linear_2_716)"/>
<path opacity="0.5" d="M353.352 287.989C332.286 290.128 326.613 295.995 326.613 295.995C320.69 296.743 307.386 281.584 307.386 281.584L305.652 279.589C305.652 279.589 294.948 303.962 285.243 315.893C284.087 317.31 282.866 318.714 281.605 320.066L282.984 316.969C282.984 316.969 285.243 315.893 285.9 304.041C286.569 292.202 280.922 274.536 280.883 272.134C280.843 269.732 280.016 257.578 280.016 257.578L298.022 268.314L294.699 257.788L307.806 268.314C307.806 268.314 312.941 276.032 325.904 282.463C338.131 288.54 351.842 288.054 353.352 287.989Z" fill="url(#paint34_linear_2_716)"/>
<path opacity="0.5" d="M305.652 279.589L318.208 277.948C318.208 277.948 323.224 281.269 333.298 285.364L324.906 297.741C324.906 297.741 328.241 315.381 337.802 325.316C337.802 325.316 312.429 311.233 308.857 299.394L305.652 279.589Z" fill="url(#paint35_linear_2_716)"/>
<path opacity="0.5" d="M232.381 242.051L235.967 251.488C235.967 251.488 239.618 264.219 246.88 264.758C254.143 265.296 261.235 243.403 261.235 243.403V228.979C261.235 228.979 253.513 245.516 245.173 247.38C236.847 249.257 232.381 242.051 232.381 242.051Z" fill="url(#paint36_linear_2_716)"/>
<path opacity="0.5" d="M275.787 234.583C275.787 234.583 282.262 247.511 290.22 251.488C290.22 251.488 280.751 228.519 282.748 215.014C282.748 215.014 279.267 217.179 275.787 234.583Z" fill="url(#paint37_linear_2_716)"/>
<path opacity="0.76" d="M433.059 253.733L435.291 260.938L437.55 320.066C437.55 320.066 431.811 308.818 427.792 292.753L429.88 289.538C429.88 289.538 433.4 267.251 433.059 253.733Z" fill="url(#paint38_linear_2_716)"/>
<path opacity="0.5" d="M501.812 271.136C501.812 271.136 500.551 300.182 512.896 302.689L513.513 305.799C513.513 305.799 497.53 305.209 501.812 271.136Z" fill="url(#paint39_linear_2_716)"/>
<path opacity="0.3" d="M481.205 279.969C481.205 279.969 480.732 281.006 476.241 277.751C476.241 277.751 460.704 288.75 454.715 304.251C454.715 304.251 464.29 290.01 469.385 288.474C474.481 286.939 475.716 292.622 475.716 292.622C475.716 292.622 477.738 284.602 481.205 279.969Z" fill="url(#paint40_linear_2_716)"/>
<path opacity="0.5" d="M230.74 257.211C230.74 257.211 236.715 268.222 247.918 264.771C247.918 264.771 241.207 269.286 234.483 265.611C234.483 265.611 230.306 258.458 230.74 257.211Z" fill="url(#paint41_linear_2_716)"/>
<path opacity="0.5" d="M269.89 243.272C269.89 243.272 278.111 273.984 256.665 297.058C256.665 297.058 270.586 289.918 273.751 273.381C276.903 256.83 269.89 243.272 269.89 243.272Z" fill="url(#paint42_linear_2_716)"/>
<path opacity="0.5" d="M417.167 218.728C417.167 218.728 416.248 232.588 409.589 242.537C402.944 252.486 389.758 259.193 389.758 259.193C389.758 259.193 406.306 253.103 413.897 244.519C421.488 235.948 417.167 218.728 417.167 218.728Z" fill="url(#paint43_linear_2_716)"/>
<path opacity="0.5" d="M332.523 197.872C332.523 197.872 332.523 209.462 336.253 221.274C339.983 233.087 372.383 253.732 372.383 253.732C372.383 253.732 338.984 239.872 332.523 227.404C326.048 214.935 332.523 197.872 332.523 197.872Z" fill="url(#paint44_linear_2_716)"/>
<path opacity="0.5" d="M400.948 200.379C399.923 212.586 396.206 221.091 392.24 226.826C386.777 234.701 380.867 237.392 380.867 237.392C374.957 234.819 369.835 231.617 365.422 228.086C346.694 213.124 340.652 192.386 340.193 190.68C348.099 209.764 359.709 221.327 368.508 227.837C375.6 233.1 380.867 235.082 380.867 235.082V228.979C379.461 228.454 378.096 227.85 376.795 227.194C361.298 219.384 353.155 203.109 349.347 192.583C349.333 192.557 349.334 192.544 349.32 192.518C347.258 186.821 346.457 182.818 346.457 182.818H349.268L348.348 184.787L348.309 184.853C348.756 186.848 349.268 188.764 349.846 190.588C349.859 190.641 349.872 190.693 349.898 190.733C358.566 218.059 380.867 226.866 380.867 226.866C396.364 215.434 396.062 197.282 396.062 197.282V194.788L398.964 195.654L400.948 200.379Z" fill="url(#paint45_linear_2_716)"/>
<path opacity="0.3" d="M492.881 266.713C492.881 266.713 488.665 280.468 492.644 301.849C492.644 301.849 494.641 274.746 496.125 272.383C497.622 270.021 501.798 271.136 501.798 271.136C501.798 271.136 495.232 267.501 492.881 266.713Z" fill="url(#paint46_linear_2_716)"/>
<path opacity="0.5" d="M452.01 341.486C448.333 338.271 443.92 332.902 439.52 324.109C430.721 306.534 428.199 294.801 427.792 292.753L429.88 289.538L432.678 262.5L435.291 260.938C435.291 260.938 444.629 250.635 451.721 235.082C451.826 235.318 451.944 235.686 452.076 236.211V236.224C453.507 241.841 456.449 262.881 459.181 270.388C460.888 275.074 463.58 277.659 465.564 278.998C465.564 278.998 449.396 302.964 448.608 320.066C447.912 335.632 451.38 340.699 452.01 341.486Z" fill="url(#paint47_linear_2_716)"/>
<path opacity="0.5" d="M356.018 391.466C356.018 391.466 326.876 386.689 314.977 379.024C314.977 379.024 314.964 379.024 314.964 379.011C315.082 378.354 315.134 377.711 315.108 377.068C314.859 370.506 309.185 364.691 308.397 360.964C308.528 361.318 309.382 363.287 313.519 366.831C316.132 369.075 320.086 371.963 326.022 375.467C326.179 375.559 326.337 375.651 326.482 375.729C334.887 380.691 342.123 384.051 347.35 386.518C347.39 386.531 347.416 386.544 347.442 386.557C352.144 388.762 355.191 390.219 356.005 391.453C356.018 391.453 356.018 391.466 356.018 391.466Z" fill="url(#paint48_linear_2_716)"/>
<path opacity="0.5" d="M418.362 368.274C418.205 369.403 415.631 371.884 414.895 374.587C414.895 374.587 404.205 385.901 364.634 382.423C364.897 381.307 373.21 382.922 392.49 379.063C411.178 375.322 417.955 368.681 418.362 368.274Z" fill="url(#paint49_linear_2_716)"/>
<path opacity="0.5" d="M424.942 215.198L399.647 223.387L392.24 226.826L392.201 226.839L387.381 226.852L380.867 226.866L376.795 227.194L374.641 227.351L368.508 227.837L365.422 228.086L335.084 217.114L329.66 215.158L304.706 206.128C305.442 205.839 306.191 205.551 306.979 205.236C323.724 198.607 340.153 190.562 340.153 190.562L346.457 182.818H349.268C351.776 177.332 353.444 172.2 354.521 168.157L356.189 160.663C356.307 159.941 356.36 159.548 356.36 159.548L365.291 164.259L395.405 188.331C395.379 189.971 395.432 191.441 395.523 192.688L395.957 195.72C396.036 195.129 396.062 194.788 396.062 194.788L398.964 195.654L400.948 200.379C400.948 200.379 404.31 205.603 417.627 211.457C419.925 212.467 422.394 213.741 424.942 215.198Z" fill="#7A4AC0"/>
<path d="M405.676 192.137C405.676 192.137 393.882 194.788 380.867 188.488C367.852 182.188 356.911 163.616 356.242 158.983C355.585 154.337 361.219 142.236 361.219 132.786C361.219 123.336 356.583 107.087 364.371 98.2931C372.172 89.5125 408 88.1869 419.623 99.4612C419.623 99.4612 423.222 108.491 423.222 113.597C423.222 114.831 422.998 116.642 422.67 118.729C422.565 119.503 422.421 120.33 422.289 121.183C421.252 127.365 419.82 134.912 420.49 138.219C420.726 139.374 421.094 140.437 421.527 141.448V141.461C422.959 144.769 425.087 147.407 425.467 150.268C425.967 154.009 420.95 180.534 405.676 192.137Z" fill="url(#paint50_linear_2_716)"/>
<path opacity="0.6" d="M421.856 116.708C420.306 116.511 414.829 123.165 414.829 123.165C414.829 123.165 411.349 133.941 412.032 137.13C412.715 140.333 421.173 142.026 421.173 142.026L421.527 141.461V141.448C421.094 140.437 420.726 139.374 420.49 138.219C419.82 134.912 421.252 127.365 422.289 121.183C422.289 121.183 422.631 119.91 422.67 118.729C422.709 117.731 422.565 116.786 421.856 116.708Z" fill="url(#paint51_linear_2_716)" fill-opacity="0.5"/>
<path d="M361.127 130.121C361.127 130.121 357.91 122.049 349.819 121.931C349.819 121.931 345.091 123.795 344.343 127.404C344.343 127.404 346.09 140.464 348.073 146.554C350.069 152.644 357.358 151.764 357.358 151.764C357.358 151.764 363.715 142.039 361.127 130.121Z" fill="url(#paint52_linear_2_716)"/>
<path d="M392.201 156.699C392.201 156.699 394.893 156.489 396.049 157.356C397.205 158.222 401.447 162.33 406.792 163.446C412.137 164.561 415.736 160.007 416.865 159.784C418.008 159.547 419.255 161.162 419.255 161.162C419.255 161.162 418.769 159.298 415.972 158.458C415.972 158.458 414.843 162.75 407.094 161.28C399.345 159.81 396.036 156.371 396.036 156.371L395.642 155.662C395.668 155.662 393.475 156.122 392.201 156.699Z" fill="url(#paint53_linear_2_716)"/>
<path opacity="0.6" d="M380.762 116.55L380.867 115.723C380.867 115.723 388.602 102.152 403.903 101.784C419.203 101.417 422.657 110.998 422.657 110.998L425.494 106.693L419.032 93.5812L374.064 92.8331L363.11 101.666L361.731 123.283L366.604 151.817L378.45 158.13L381.799 155.164C380.565 145.609 373.459 136.881 373.459 136.881L378.647 133.284C378.647 133.284 391.964 139.729 399.647 137.799C399.647 137.799 405.439 120.921 405.098 108.426C405.098 108.399 385.385 111.313 380.762 116.55Z" fill="url(#paint54_linear_2_716)" fill-opacity="0.5"/>
<path d="M380.079 117.548C380.079 117.548 380.827 112.665 389.075 110.709C398.268 108.531 405.741 106.693 405.741 106.693C405.741 106.693 404.113 112.048 401.053 114.056C401.053 114.056 391.321 113.702 386.409 114.818C381.471 115.946 380.079 117.548 380.079 117.548Z" fill="#38368E"/>
<path d="M422.67 110.998C422.67 110.998 418.008 114.594 414.829 123.178C414.829 123.178 417.876 119.201 420.674 119.267C422.591 119.306 422.289 121.209 422.289 121.209C422.289 121.209 424.194 116.064 422.67 110.998Z" fill="#38368E"/>
<path d="M383.165 131.368C383.165 131.368 383.664 121.052 393.737 118.44C393.737 118.44 397.349 123.099 397.717 128.389C397.717 128.389 392.371 127.391 383.165 131.368Z" fill="url(#paint55_linear_2_716)"/>
<path d="M412.032 135.476C412.032 135.476 412.846 127.26 417.574 124.228C417.574 124.228 420.792 126.643 420.464 133.521C420.45 133.508 417.627 132.497 412.032 135.476Z" fill="url(#paint56_linear_2_716)"/>
<path d="M383.165 131.368C383.165 131.368 386.435 135.384 395.602 136.172C395.602 136.172 397.349 133.521 397.178 128.31C397.178 128.323 388.76 127.522 383.165 131.368Z" fill="#FFEBED"/>
<path d="M412.032 135.476V136.684C412.032 136.684 413.437 139.624 418.507 140.122C418.507 140.122 420.135 137.589 420.28 133.468C420.267 133.468 417.049 132.654 412.032 135.476Z" fill="#FFEBED"/>
<path d="M392.962 128.113C392.962 128.113 390.638 130.935 390.848 135.398C390.848 135.398 393.895 136.119 395.602 136.185C395.602 136.185 397.612 133.389 397.178 128.323C397.178 128.323 394.512 127.759 392.962 128.113Z" fill="#7F9EC9"/>
<path d="M416.826 133.599C416.826 133.599 415.512 135.004 415.263 139.322C415.263 139.322 417.062 140.109 418.494 140.109C418.494 140.109 420.332 137.497 420.267 133.455C420.267 133.468 418.98 132.969 416.826 133.599Z" fill="#7F9EC9"/>
<path d="M392.201 135.699C392.201 135.699 391.373 130.121 394.565 127.995L397.178 128.323C397.178 128.323 398.045 132.733 395.602 136.185C395.602 136.185 393.002 135.883 392.201 135.699Z" fill="#38368E"/>
<path d="M417.981 133.363C417.981 133.363 416.799 135.844 416.248 139.702C416.248 139.702 417.154 140.07 418.494 140.122C418.494 140.122 420.28 137.931 420.267 133.468C420.267 133.468 418.901 133.101 417.981 133.363Z" fill="#38368E"/>
<path d="M383.165 131.368C383.165 131.368 389.259 127.824 399.647 129.846L397.717 128.389C397.717 128.389 390.31 126.092 383.165 131.368Z" fill="#131163"/>
<path d="M412.032 135.476C412.032 135.476 416.918 132.877 422.618 134.256L420.267 132.523C420.267 132.523 416.445 131.932 412.032 135.476Z" fill="#131163"/>
<path d="M389.758 131.368C389.758 131.368 391.413 131.001 392.91 132.51C392.91 132.523 390.861 133.114 389.758 131.368Z" fill="white"/>
<path d="M414.265 136.185C414.265 136.185 416.865 135.686 417.758 136.867C417.771 136.867 416.379 137.812 414.265 136.185Z" fill="white"/>
<path d="M383.769 131.972C383.769 131.972 388.51 136.657 396.101 137.773L396.298 135.017L395.602 136.185C395.602 136.185 388.313 135.752 383.769 131.972Z" fill="#C6659C"/>
<path d="M412.032 136.684C412.032 136.684 412.873 139.716 419.045 141.081L418.848 139.597L418.507 140.122C418.494 140.122 414.107 139.558 412.032 136.684Z" fill="#C6659C"/>
<path d="M399.647 148.785C399.647 148.785 401.946 148.286 406.175 148.785C410.404 149.284 415.158 150.439 417.758 148.785C417.758 148.785 414.304 152.237 411.31 152.762C408.315 153.287 403.758 150.662 403.758 150.662L401.762 150.701C401.788 150.701 400.251 149.94 399.647 148.785Z" fill="#CB5F7D"/>
<path d="M402.077 150.688C402.077 150.688 403.115 150.019 403.981 150.189C404.848 150.36 405.741 151.62 405.741 151.62C405.741 151.62 403.903 150.649 402.077 150.688Z" fill="#9F4A8B"/>
<path d="M417.771 148.785C418.875 147.709 413.148 137.524 410.417 137.143C407.685 136.763 405.111 148.562 405.111 148.562C405.111 148.562 408.92 149.1 412.61 149.586C416.287 150.084 417.771 148.785 417.771 148.785Z" fill="#FFBCAF"/>
<path d="M421.606 160.466C419.86 156.818 420.936 154.914 405.767 152.932C384.294 150.111 382.456 156.66 378.805 155.662C378.673 155.623 378.516 155.571 378.371 155.505C374.418 153.969 365.107 144.821 364.87 132.497C364.621 119.687 373.21 110.604 373.21 110.604C370.097 107.992 368.85 100.419 372.212 97.1775C375.574 93.9487 381.3 94.6969 395.353 96.18C409.419 97.6762 409.419 96.81 409.419 96.81C413.884 97.9519 416.445 102.139 417.167 103.477C417.312 103.74 417.377 103.897 417.377 103.897L419.124 102.283C423.852 109.121 422.985 116.576 422.985 116.576C422.985 116.576 430.695 100.905 429.815 98.6869C428.212 94.5919 423.76 88.62 423.484 88.2394L423.471 88.2262C423.471 88.2262 422.224 76.2956 418.494 76.2956C414.764 76.2956 398.833 79.8919 398.833 79.8919C400.58 75.7969 400.33 71.0719 400.33 71.0719C400.33 71.0719 400.304 71.0981 400.265 71.1375C395.064 75.7969 389.981 76.3087 382.784 79.6425C379.159 81.3356 377.452 82.8975 376.047 84.525L375.561 85.1025L375.049 85.7194C374.55 86.3494 374.037 86.9925 373.42 87.6487C373.394 87.6881 373.354 87.7144 373.341 87.7275C373.315 87.7537 373.302 87.7669 373.302 87.7669C372.724 88.3969 372.041 89.04 371.214 89.7225C366.486 93.5681 356.084 96.1406 354.836 100.209C353.589 104.265 356.412 109.817 357.91 115.539C359.394 121.262 358.711 126.315 358.711 126.315C358.711 126.315 363.662 132.694 362.02 142.026C360.563 150.386 357.371 151.751 357.371 151.751C355.125 156.358 356.189 160.663 356.189 160.663C360.786 178.933 379.803 189.814 379.803 189.814C396.719 196.114 407.843 193.371 407.843 193.371C407.843 193.371 407.843 193.371 407.856 193.358C420.162 185.338 424.377 158.799 424.561 157.566C424.351 157.894 422.066 161.438 421.606 160.466ZM414.015 177.384C411.034 176.886 410.404 169.339 409.419 168.341C408.42 167.357 403.023 167.764 403.023 167.764C403.023 167.764 398.045 173.408 396.062 173.565C394.066 173.736 383.454 169.418 385.752 162.96C388.037 156.489 396.062 155.662 396.062 155.662C396.062 155.662 400.212 159.141 406.424 159.547C412.649 159.954 414.895 158.812 415.631 158.484C416.379 158.143 420.385 159.967 420.28 165.611C420.214 169.536 417.01 177.883 414.015 177.384Z" fill="url(#paint57_linear_2_716)"/>
<path d="M413.24 139.401C413.24 139.401 418.599 146.055 418.087 148.562C417.522 151.305 411.31 152.762 411.31 152.762C411.31 152.762 416.287 151.042 417.312 148.562C417.325 148.562 416.038 143.522 413.24 139.401Z" fill="#D2726C"/>
<path opacity="0.6" d="M422.985 116.576C422.985 116.576 423.852 109.121 419.124 102.283C422.92 95.5106 423.471 88.2262 423.471 88.2262L423.484 88.2394C424.771 91.4025 425.507 97.5581 425.507 97.5581L429.815 98.6869C430.695 100.905 422.985 116.576 422.985 116.576Z" fill="url(#paint58_linear_2_716)" fill-opacity="0.5"/>
<path opacity="0.6" d="M417.167 103.477C416.445 102.139 413.884 97.9519 409.419 96.81C409.419 96.81 409.419 97.6762 395.353 96.18C381.3 94.6969 375.574 93.9487 372.212 97.1775C368.85 100.419 370.097 107.992 373.21 110.604C373.21 110.604 364.621 119.687 364.87 132.497C365.107 144.821 374.418 153.969 378.371 155.505L378.187 156.87C378.187 156.87 378.884 185.089 385.752 187.333C392.608 189.564 406.844 188.409 408.171 189.735C409.432 190.995 407.987 193.161 407.856 193.358C407.843 193.371 407.843 193.371 407.843 193.371C407.843 193.371 396.719 196.114 379.803 189.814C379.803 189.814 360.786 178.933 356.189 160.663C356.189 160.663 355.125 156.358 357.371 151.751C357.371 151.751 360.563 150.386 362.02 142.026C363.662 132.694 358.711 126.315 358.711 126.315C358.711 126.315 359.394 121.262 357.91 115.539C356.412 109.817 353.589 104.265 354.836 100.209C362.795 101.456 368.022 97.3087 368.022 97.3087C368.022 97.3087 369.414 95.3794 375.574 94.3819C381.733 93.3844 406.49 95.8781 406.49 95.8781C406.49 95.8781 404.008 93.8175 398.781 92.4525C393.842 91.1531 376.979 92.6625 375.167 92.8069C377.097 92.4656 396.22 89.1844 398.4 89.8406C400.711 90.5231 408.985 94.3162 408.985 94.3162C408.237 90.5231 400.829 81.3881 400.829 81.3881C400.829 81.3881 390.375 81.5719 383.533 83.0025C377.426 84.2756 374.077 87.0712 373.42 87.6487L375.049 85.7194L375.561 85.1025L376.047 84.525L378.437 84.1181L390.441 79.275C394.473 77.1225 399.634 71.7937 400.265 71.1375C400.304 71.0981 400.33 71.0719 400.33 71.0719C400.33 71.0719 400.58 75.7969 398.833 79.8919C408.972 78.645 412.4 79.275 412.4 79.275C417.01 85.7981 417.167 103.477 417.167 103.477Z" fill="url(#paint59_linear_2_716)" fill-opacity="0.5"/>
<path opacity="0.5" d="M379.803 189.814C379.803 189.814 386.015 188.344 395.392 188.724C404.769 189.105 410.167 189.144 407.843 193.371C407.843 193.371 396.062 196.035 379.803 189.814Z" fill="url(#paint60_linear_2_716)"/>
<path d="M412.4 79.275C412.4 79.275 418.1 77.0569 420.359 77.4113C420.359 77.4113 419.466 76.2169 418.533 75.9675C417.601 75.7181 398.833 79.8788 398.833 79.8788C398.833 79.8788 410.535 78.5269 412.4 79.275Z" fill="url(#paint61_linear_2_716)"/>
<path d="M400.829 81.3881C400.829 81.3881 400.383 87.5962 398.4 89.8406L375.167 92.8069L368.351 91.5994C368.351 91.5994 370.99 90.4706 373.893 87.0975C376.782 83.7112 391.938 80.3906 400.829 81.3881Z" fill="url(#paint62_linear_2_716)"/>
<path d="M423.471 88.2262C423.471 88.2262 425.362 94.3294 425.507 97.5581L429.815 98.6869C429.815 98.6869 428.501 94.0669 423.471 88.2262Z" fill="url(#paint63_linear_2_716)"/>
<path opacity="0.8" d="M360.169 141.067C360.169 141.067 358.54 133.232 354.534 129.36C350.529 125.488 345.971 126.722 345.971 126.722C345.971 126.722 347.219 141.251 348.519 144.795C349.819 148.339 351.816 149.271 351.816 149.271C351.816 149.271 349.018 146.816 348.637 142.012C348.27 137.209 348.138 130.436 349.202 129.622C350.266 128.809 354.534 131.972 354.534 131.972C354.534 131.972 353.182 133.626 352.38 137.904C351.566 142.183 354.561 145.294 355.677 145.228C356.793 145.162 355.611 140.28 355.795 138.862C355.979 137.471 358.461 137.773 360.169 141.067Z" fill="url(#paint64_linear_2_716)"/>
<path opacity="0.8" d="M356.163 131.342C356.163 131.342 351.789 134.216 352.262 140.096C352.735 145.989 356.097 145.727 356.11 144.493C356.123 143.259 355.467 140.07 355.808 138.272C356.15 136.474 359.052 137.287 359.052 137.287C359.052 137.287 357.161 132.615 356.163 131.342Z" fill="url(#paint65_linear_2_716)"/>
<path d="M424.561 157.566C424.561 157.566 419.124 182.332 407.843 193.371C407.843 193.371 420.713 188.317 424.561 157.566Z" fill="#34C7FF"/>
<path d="M418.533 75.9806C418.533 75.9806 421.396 78.2119 421.948 85.9425C422.486 93.6863 419.137 102.283 419.137 102.283C419.137 102.283 423.445 95.8519 423.865 88.8038C424.259 81.7556 420.805 76.8731 418.533 75.9806Z" fill="#34C7FF"/>
<path d="M383.809 92.19C383.809 92.19 390.441 94.4475 397.717 95.0906C404.993 95.7337 406.49 95.8781 406.49 95.8781C406.49 95.8781 403.561 93.0431 397.336 92.19C391.111 91.3369 383.809 92.19 383.809 92.19Z" fill="url(#paint66_linear_2_716)"/>
<path d="M415.854 158.104C415.854 158.104 419.032 158.104 420.28 162.081C421.278 165.257 421.554 167.987 421.554 167.987L422.683 163.629C422.683 163.629 421.212 158.104 419.689 156.857C418.586 155.964 416.694 155.059 415.801 155.269L415.854 158.104Z" fill="url(#paint67_linear_2_716)"/>
<path d="M407.304 154.127L407.843 158.852C407.843 158.852 411.704 159.167 414.265 158.104L414.724 155.242C414.724 155.242 409.799 154.009 407.304 154.127Z" fill="url(#paint68_linear_2_716)"/>
<path d="M424.942 215.198C424.942 215.198 447.571 231.709 450.5 237.392C453.441 243.075 454.623 260.886 458.59 268.603C458.59 268.603 455.871 255.99 453.967 246.107C452.062 236.224 452.522 236.079 451.458 233.651C450.421 231.223 433.518 219.503 424.942 215.198Z" fill="#34C7FF"/>
<path d="M420.884 307.125C420.884 307.125 409.983 353.771 410.469 356.921C410.968 360.071 418.021 366.502 418.349 368.261C418.349 368.261 412.951 375.48 413.201 377.081C413.45 378.682 422.657 388.789 422.407 391.926C422.342 392.831 416.366 402.675 416.366 402.675C416.366 402.675 423.117 393.002 423.445 391.453C423.773 389.904 415.171 376.976 414.921 375.664C414.265 372.264 419.216 369.757 419.374 367.526C419.544 365.282 412.689 359.822 412.623 356.173C412.597 352.538 420.884 307.125 420.884 307.125Z" fill="#34C7FF"/>
<path d="M423.103 418.333C423.103 418.333 446.678 471.66 454.715 525C454.715 525 453.376 472.946 423.103 418.333Z" fill="#34C7FF"/>
<path d="M273.633 204.488C273.633 204.488 267.539 203.188 265.004 197.873C262.47 192.557 264.124 184.852 264.124 184.852C264.124 184.852 268.905 194.014 271.282 197.138C273.659 200.261 274.303 203.818 273.633 204.488Z" fill="#FFBCAF"/>
<path opacity="0.6" d="M461.846 176.689L466.075 297.176C466.246 301.954 470.173 305.747 474.954 305.747H682.631C687.451 305.747 691.391 301.901 691.509 297.084L694.411 175.192C694.53 170.179 690.485 166.071 685.468 166.097L470.659 167.501C465.655 167.528 461.663 171.688 461.846 176.689Z" fill="#36D1F7" fill-opacity="0.8"/>
<path d="M682.631 306.062H474.954C469.963 306.062 465.918 302.164 465.747 297.176L461.518 176.689C461.427 174.182 462.333 171.806 464.079 169.995C465.813 168.184 468.151 167.173 470.672 167.16L685.494 165.756C687.99 165.769 690.367 166.714 692.127 168.512C693.887 170.31 694.832 172.673 694.767 175.179L691.864 297.071C691.72 302.111 687.675 306.062 682.631 306.062ZM685.534 166.412C685.521 166.412 685.494 166.412 685.481 166.412L470.659 167.816C468.322 167.829 466.155 168.761 464.539 170.441C462.924 172.121 462.083 174.326 462.162 176.663L466.391 297.15C466.549 301.783 470.305 305.406 474.941 305.406H682.618C687.228 305.406 691.063 301.665 691.168 297.058L694.07 175.166C694.123 172.83 693.256 170.638 691.614 168.971C690.012 167.318 687.858 166.412 685.534 166.412Z" fill="#744CA2"/>
<path opacity="0.6" d="M462.149 182.818H694.162L694.53 176.466C694.858 170.848 690.367 166.123 684.733 166.163L470.003 167.856C465.524 167.895 461.926 171.583 462.018 176.059L462.149 182.818Z" fill="url(#paint69_linear_2_716)"/>
<path opacity="0.3" d="M473.824 192.544V262.264H544.836V192.176L473.824 192.544Z" fill="url(#paint70_linear_2_716)"/>
<path opacity="0.3" d="M644.361 197.216H613.471V228.086H644.361V197.216Z" fill="url(#paint71_linear_2_716)"/>
<path opacity="0.3" d="M680.806 197.216H649.916V228.086H680.806V197.216Z" fill="url(#paint72_linear_2_716)"/>
<path opacity="0.3" d="M607.298 197.216H576.409V228.086H607.298V197.216Z" fill="url(#paint73_linear_2_716)"/>
<path d="M680.806 246.094H601.809V253.483H680.806V246.094Z" fill="#D1D4FB"/>
<path d="M680.819 257.342H582.056V259.626H680.819V257.342Z" fill="#D1D4FB"/>
<path d="M601.888 232.024H582.989V234.308H601.888V232.024Z" fill="#D1D4FB"/>
<path d="M638.372 232.024H619.473V234.308H638.372V232.024Z" fill="#D1D4FB"/>
<path d="M674.817 232.024H655.918V234.308H674.817V232.024Z" fill="#D1D4FB"/>
<path d="M608.178 261.069H576.409V263.353H608.178V261.069Z" fill="#D1D4FB"/>
<path d="M680.819 264.744H582.056V267.028H680.819V264.744Z" fill="#D1D4FB"/>
<path d="M680.806 268.419H576.409V270.703H680.806V268.419Z" fill="#D1D4FB"/>
<path d="M680.806 272.094H576.409V274.378H680.806V272.094Z" fill="#D1D4FB"/>
<path d="M680.819 286.952H582.056V289.236H680.819V286.952Z" fill="#D1D4FB"/>
<path d="M680.806 290.627H576.409V292.911H680.806V290.627Z" fill="#D1D4FB"/>
<path d="M680.806 294.302H576.409V296.586H680.806V294.302Z" fill="#D1D4FB"/>
<path d="M676.616 275.769H576.409V278.053H676.616V275.769Z" fill="#D1D4FB"/>
<path d="M680.819 279.444H582.056V281.728H680.819V279.444Z" fill="#D1D4FB"/>
<path d="M661.001 283.119H576.409V285.403H661.001V283.119Z" fill="#D1D4FB"/>
<path d="M493.721 248.286C482.584 248.286 473.522 239.229 473.522 228.099C473.522 216.969 482.584 207.913 493.721 207.913C504.858 207.913 513.92 216.969 513.92 228.099C513.92 239.229 504.858 248.286 493.721 248.286ZM493.721 209.213C483.307 209.213 474.836 217.678 474.836 228.086C474.836 238.494 483.307 246.96 493.721 246.96C504.136 246.96 512.607 238.494 512.607 228.086C512.607 217.678 504.136 209.213 493.721 209.213Z" fill="#E0FFFF"/>
<path d="M493.721 239.059C499.785 239.059 504.701 234.146 504.701 228.086C504.701 222.026 499.785 217.114 493.721 217.114C487.658 217.114 482.742 222.026 482.742 228.086C482.742 234.146 487.658 239.059 493.721 239.059Z" fill="white"/>
<path d="M544.836 212.363C533.699 212.363 524.637 203.306 524.637 192.176C524.637 181.046 533.699 171.99 544.836 171.99C555.973 171.99 565.035 181.046 565.035 192.176C565.049 203.306 555.973 212.363 544.836 212.363ZM544.836 173.289C534.422 173.289 525.951 181.755 525.951 192.163C525.951 202.571 534.422 211.037 544.836 211.037C555.251 211.037 563.722 202.571 563.722 192.163C563.735 181.768 555.251 173.289 544.836 173.289Z" fill="#E0FFFF"/>
<path d="M555.02 193.797C555.907 188.162 552.055 182.875 546.416 181.989C540.777 181.102 535.487 184.952 534.6 190.587C533.713 196.222 537.565 201.509 543.204 202.396C548.842 203.282 554.133 199.433 555.02 193.797Z" fill="white"/>
<path d="M470.278 173.355L471.762 171.124L479.748 178.106L478.513 179.813L470.278 173.355Z" fill="white"/>
<path d="M479.944 173.355L478.473 171.124L470.488 178.106L471.709 179.813L479.944 173.355Z" fill="white"/>
<path d="M688.555 172.633H617.057V176.216H688.555V172.633Z" fill="white"/>
<path d="M240.8 120.908V151.922L277.914 152.237L278.414 119.923L240.8 120.908Z" fill="url(#paint74_linear_2_716)"/>
<path d="M278.414 119.923L280.83 123.992L279.622 152.198L277.914 152.237L278.414 119.923Z" fill="url(#paint75_linear_2_716)"/>
<path d="M247.432 131.381L250.86 126.407L269.378 141.947L266.541 145.74L247.432 131.381Z" fill="white"/>
<path d="M269.864 131.381L266.436 126.407L247.905 141.947L250.742 145.74L269.864 131.381Z" fill="white"/>
<path opacity="0.81" d="M327.374 485.861H200.388C194.741 485.861 190.118 481.346 189.986 475.702L187.609 371.608C187.478 365.781 192.167 360.977 198.011 360.977H330.224C336.082 360.977 340.783 365.807 340.626 371.661L337.763 475.755C337.618 481.386 333.008 485.861 327.374 485.861Z" fill="url(#paint76_linear_2_716)"/>
<path d="M327.375 486.189H200.388C194.61 486.189 189.79 481.491 189.658 475.716L187.281 371.621C187.216 368.708 188.306 365.964 190.341 363.877C192.377 361.804 195.096 360.649 198.011 360.649H330.225C333.14 360.649 335.872 361.804 337.908 363.891C339.943 365.977 341.02 368.747 340.941 371.661L338.078 475.755C337.934 481.609 333.232 486.189 327.375 486.189ZM198.024 361.318C195.293 361.318 192.732 362.394 190.827 364.35C188.91 366.306 187.899 368.891 187.964 371.621L190.341 475.716C190.46 481.136 194.977 485.546 200.415 485.546H327.401C332.891 485.546 337.317 481.241 337.474 475.755L340.337 371.661C340.416 368.918 339.405 366.332 337.487 364.363C335.57 362.394 333.009 361.318 330.264 361.318H198.024Z" fill="#473DA2"/>
<path d="M288.631 382.279H221.848V385.14H288.631V382.279Z" fill="white"/>
<path d="M255.233 389.222H221.848V392.083H255.233V389.222Z" fill="white"/>
<path d="M255.233 395.036H221.848V397.897H255.233V395.036Z" fill="white"/>
<path d="M285.558 395.036H258.989V397.897H285.558V395.036Z" fill="white"/>
<path d="M275.682 400.838H221.848V403.699H275.682V400.838Z" fill="white"/>
<path d="M241.01 406.639H221.848V409.5H241.01V406.639Z" fill="white"/>
<path d="M278.085 424.043H244.95V426.904H278.085V424.043Z" fill="white"/>
<path d="M281.907 412.44H221.848V415.301H281.907V412.44Z" fill="white"/>
<path d="M268.051 418.241H221.848V421.103H268.051V418.241Z" fill="white"/>
<path d="M243.584 424.043H221.848V426.904H243.584V424.043Z" fill="white"/>
<path d="M255.233 429.844H221.848V432.705H255.233V429.844Z" fill="white"/>
<path d="M231.422 435.645H221.848V438.506H231.422V435.645Z" fill="white"/>
<path d="M270.126 435.645H235.376V438.506H270.126V435.645Z" fill="white"/>
<path d="M278.085 441.276H244.95V444.137H278.085V441.276Z" fill="white"/>
<path d="M243.584 441.276H221.848V444.137H243.584V441.276Z" fill="white"/>
<path d="M255.233 447.077H221.848V449.938H255.233V447.077Z" fill="white"/>
<path d="M231.422 452.878H221.848V455.739H231.422V452.878Z" fill="white"/>
<path d="M270.126 452.878H235.376V455.739H270.126V452.878Z" fill="white"/>
<path d="M668.119 142.853C668.119 146.094 665.492 148.719 662.248 148.719C659.004 148.719 656.378 146.094 656.378 142.853C656.378 139.611 659.004 136.986 662.248 136.986C665.492 136.986 668.119 139.611 668.119 142.853Z" fill="url(#paint77_linear_2_716)"/>
<path d="M117.964 278.88C117.964 282.909 114.693 286.177 110.661 286.177C106.63 286.177 103.359 282.909 103.359 278.88C103.359 274.851 106.63 271.582 110.661 271.582C114.693 271.582 117.964 274.851 117.964 278.88Z" fill="url(#paint78_linear_2_716)"/>
<path d="M679.479 148.719C682.721 148.719 685.35 146.093 685.35 142.853C685.35 139.612 682.721 136.986 679.479 136.986C676.237 136.986 673.609 139.612 673.609 142.853C673.609 146.093 676.237 148.719 679.479 148.719Z" fill="url(#paint79_linear_2_716)"/>
<path d="M301.016 187.333C303.308 187.333 305.166 185.476 305.166 183.186C305.166 180.895 303.308 179.038 301.016 179.038C298.724 179.038 296.866 180.895 296.866 183.186C296.866 185.476 298.724 187.333 301.016 187.333Z" fill="url(#paint80_linear_2_716)"/>
<path d="M578.996 370.335C581.288 370.335 583.146 368.478 583.146 366.188C583.146 363.897 581.288 362.04 578.996 362.04C576.704 362.04 574.846 363.897 574.846 366.188C574.846 368.478 576.704 370.335 578.996 370.335Z" fill="url(#paint81_linear_2_716)"/>
<path d="M147.54 411.246C149.585 411.246 151.243 409.589 151.243 407.544C151.243 405.5 149.585 403.843 147.54 403.843C145.494 403.843 143.836 405.5 143.836 407.544C143.836 409.589 145.494 411.246 147.54 411.246Z" fill="url(#paint82_linear_2_716)"/>
<path opacity="0.73" d="M210.776 371.136H146.686C141.524 371.136 137.295 367.054 137.125 361.896L135.706 319.764C135.522 314.357 139.856 309.881 145.267 309.881H212.063C217.461 309.881 221.795 314.344 221.625 319.738L220.337 361.869C220.18 367.027 215.951 371.136 210.776 371.136Z" fill="url(#paint83_linear_2_716)"/>
<path d="M210.777 371.464H146.686C141.328 371.464 136.981 367.264 136.797 361.909L135.378 319.777C135.286 317.074 136.271 314.514 138.15 312.572C140.028 310.629 142.562 309.553 145.268 309.553H212.064C214.769 309.553 217.291 310.616 219.169 312.559C221.047 314.501 222.045 317.047 221.953 319.751L220.666 361.883C220.509 367.251 216.162 371.464 210.777 371.464ZM145.268 310.222C142.746 310.222 140.382 311.22 138.622 313.031C136.862 314.842 135.943 317.231 136.035 319.764L137.453 361.896C137.624 366.896 141.682 370.821 146.686 370.821H210.777C215.794 370.821 219.852 366.883 220.01 361.869L221.297 319.738C221.375 317.218 220.443 314.842 218.696 313.031C216.936 311.22 214.586 310.222 212.064 310.222H145.268Z" fill="#3DA290"/>
<path d="M163.773 325.028L147.973 343.337L164.075 356.987V349.939L154.763 341.88L163.405 332.115L163.773 325.028Z" fill="white"/>
<path d="M191.55 325.854L207.362 344.151L191.261 357.801V350.766L200.572 342.707L190.21 331.748L191.55 325.854Z" fill="white"/>
<path d="M167.227 356.987L180.99 326.668H187.465L171.863 356.987H167.227Z" fill="white"/>
<path opacity="0.73" d="M641.983 457.826H561.804C555.356 457.826 550.063 452.721 549.84 446.276L548.054 393.579C547.83 386.82 553.241 381.216 560.018 381.216H643.585C650.336 381.216 655.747 386.794 655.55 393.54L653.935 446.237C653.751 452.694 648.458 457.826 641.983 457.826Z" fill="url(#paint84_linear_2_716)"/>
<path d="M641.984 458.154H561.805C555.133 458.154 549.748 452.944 549.512 446.289L547.726 393.592C547.607 390.232 548.842 387.056 551.18 384.641C553.517 382.226 556.656 380.901 560.018 380.901H643.586C646.935 380.901 650.074 382.226 652.412 384.628C654.749 387.03 655.984 390.206 655.879 393.553L654.276 446.25C654.066 452.918 648.669 458.154 641.984 458.154ZM560.032 381.544C556.853 381.544 553.872 382.804 551.666 385.087C549.459 387.371 548.29 390.39 548.395 393.566L550.182 446.263C550.392 452.563 555.501 457.498 561.818 457.498H641.997C648.327 457.498 653.436 452.55 653.633 446.224L655.248 393.527C655.34 390.351 654.185 387.345 651.965 385.074C649.759 382.791 646.79 381.544 643.612 381.544H560.032Z" fill="#3DA29C"/>
<path d="M637.571 389.694H564.142V433.283H637.571V389.694Z" fill="#D1D4FB"/>
<path d="M594.349 400.509V422.467L613.117 410.484L594.349 400.509Z" fill="white"/>
<path d="M637.571 441.315H564.142V445.305H637.571V441.315Z" fill="#D1D4FB"/>
<path d="M583.146 441.315H564.142V445.305H583.146V441.315Z" fill="white"/>
<path fill-rule="evenodd" clip-rule="evenodd" d="M510.335 375.926L506.5 386.886C508.628 380.822 511.675 376.898 510.335 375.926ZM506.513 386.873L502.678 397.832C503.637 397.543 504.386 392.936 506.513 386.873ZM510.335 375.926L506.5 386.886C508.628 380.822 511.675 376.898 510.335 375.926ZM506.513 386.873L502.678 397.832C503.637 397.543 504.386 392.936 506.513 386.873ZM517.571 396.375L521.288 398.488L525.307 387.529L520.999 386.807C521.078 386.4 521.157 385.993 521.209 385.586C521.525 383.709 521.63 381.872 521.577 380.126L526.082 377.304L524.033 367.644L519.712 371.766C519.108 370.532 518.373 369.456 517.506 368.55C517.269 368.287 517.02 368.051 516.757 367.828L519.397 361.738L512.371 359.454L510.69 365.597C509.114 365.597 507.525 365.991 505.935 366.713L505.161 360.911L497.425 366.765L499.211 371.91C497.819 373.498 496.545 375.336 495.442 377.396L491.712 375.296L487.693 386.256L492.001 386.978C491.541 389.288 491.371 391.532 491.436 393.658L486.931 396.48L488.98 406.14L493.301 402.019C494.076 403.594 495.061 404.932 496.256 405.956L493.616 412.059L500.524 414.75L501.588 410.865L502.311 408.214C503.887 408.214 505.489 407.82 507.078 407.111L507.84 412.913L515.575 407.059L513.789 401.914C514.879 400.667 515.904 399.262 516.836 397.714C517.099 397.241 517.335 396.808 517.571 396.375ZM506.513 386.873C504.386 392.923 506.513 399.171 502.678 397.832C498.83 396.48 497.425 390.482 499.553 384.444C501.68 378.394 506.513 374.588 510.348 375.926C514.196 377.265 508.628 380.822 506.513 386.873ZM510.335 375.926L506.5 386.886C508.628 380.822 511.675 376.898 510.335 375.926ZM506.513 386.873L502.678 397.832C503.637 397.543 504.386 392.936 506.513 386.873Z" fill="url(#paint85_linear_2_716)"/>
<path fill-rule="evenodd" clip-rule="evenodd" d="M521.301 398.475L525.32 387.516L521.223 385.573L520.566 385.258L520.999 379.221L525.543 377.003L524.046 367.631L514.131 364.403L515.956 368.747L519.41 361.712L512.384 359.428L509.495 358.483L502.573 355.792L501.286 360.517L495.258 357.656L487.522 363.51L489.873 369.836L482.637 389.865L479.065 402.872L485.933 403.62L483.701 408.778L490.622 411.469L500.524 414.698L498.935 411.521L497.937 409.618L501.601 410.813L507.853 412.847L515.588 406.993L510.808 401.363L516.849 397.648L521.301 398.475ZM499.539 384.444C501.667 378.394 506.5 374.588 510.335 375.926L506.5 386.886L502.665 397.845C498.817 396.48 497.412 390.482 499.539 384.444Z" fill="url(#paint86_linear_2_716)"/>
<path fill-rule="evenodd" clip-rule="evenodd" d="M511.386 395.244L515.405 384.284L511.097 383.562C511.557 381.252 511.727 379.008 511.675 376.895L516.179 374.073L514.131 364.413L509.81 368.534C509.048 366.959 508.05 365.621 506.855 364.597L509.495 358.507L502.573 355.816L500.787 362.366C499.211 362.379 497.609 362.759 496.033 363.468L495.271 357.667L487.536 363.507L489.322 368.652C487.93 370.241 486.656 372.091 485.552 374.152L481.823 372.052L477.804 383.011L482.112 383.733C481.652 386.043 481.481 388.287 481.534 390.401L477.029 393.222L479.078 402.882L483.399 398.761C484.16 400.336 485.158 401.675 486.354 402.699L483.714 408.789L490.635 411.479L492.421 404.93C493.997 404.917 495.599 404.536 497.175 403.827L497.937 409.629L505.673 403.788L503.887 398.643C505.279 397.055 506.553 395.204 507.656 393.144L511.386 395.244ZM492.75 394.601C488.901 393.249 487.509 387.264 489.624 381.213C491.738 375.162 496.584 371.356 500.433 372.695C504.281 374.047 505.673 380.032 503.558 386.082C501.444 392.133 496.598 395.939 492.75 394.601Z" fill="url(#paint87_linear_2_716)"/>
<path opacity="0.5" fill-rule="evenodd" clip-rule="evenodd" d="M526.082 377.291L516.179 374.076L511.675 376.898L521.577 380.113L526.082 377.291Z" fill="#601734"/>
<path fill-rule="evenodd" clip-rule="evenodd" d="M515.588 407.006L505.673 403.778L503.887 398.646L513.802 401.874L515.588 407.006Z" fill="#B3D9FF"/>
<path opacity="0.5" fill-rule="evenodd" clip-rule="evenodd" d="M506.842 364.599L512.279 366.174L514.117 364.416L517.729 365.584L519.397 361.725L509.495 358.509L506.842 364.599Z" fill="#601734"/>
<path opacity="0.5" fill-rule="evenodd" clip-rule="evenodd" d="M492.408 404.946L497.596 407.098L497.162 403.83C497.175 403.83 494.378 405.313 492.408 404.946Z" fill="#601734"/>
<path opacity="0.5" fill-rule="evenodd" clip-rule="evenodd" d="M493.209 375.244L501.943 379.864C501.943 379.864 503.204 378.171 504.189 377.488C504.202 377.488 501.917 367.854 493.209 375.244Z" fill="#601734"/>
<path d="M292.598 48.51L301.016 65.3756L295.395 67.935L287.515 52.4475L292.598 48.51Z" fill="#55F1B7"/>
<path d="M102.887 441.394L110.688 449.951L113.748 446.421L106.38 438.322L102.887 441.394Z" fill="#6877FF"/>
<path d="M499.211 151.423L491.357 156.188L488.219 150.216L496.808 145.215L499.211 151.423Z" fill="#4F31E0"/>
<path d="M537.889 452.917L526.634 460.911L523.482 454.952L534.408 448.573L537.889 452.917Z" fill="#4F31E0"/>
<path fill-rule="evenodd" clip-rule="evenodd" d="M523.022 110.644L521.117 66.465H578.996L576.619 110.512L523.022 110.644Z" fill="url(#paint88_linear_2_716)"/>
<path fill-rule="evenodd" clip-rule="evenodd" d="M521.118 66.465L519.384 69.0637L521.118 110.644H523.022L521.118 66.465Z" fill="url(#paint89_linear_2_716)"/>
<path d="M540.332 75.285L531.256 74.3138L532.491 104.58L540.332 103.819V100.682L535.787 100.787L535.275 77.4506L540.332 77.595V75.285Z" fill="white"/>
<path d="M558.942 75.285L568.017 74.3138L566.769 104.58L558.942 103.819V100.682L563.473 100.787L563.998 77.4506L558.942 77.595V75.285Z" fill="white"/>
<path fill-rule="evenodd" clip-rule="evenodd" d="M123.913 207.349L125.213 177.227H85.7607L87.376 207.257L123.913 207.349Z" fill="url(#paint90_linear_2_716)"/>
<path fill-rule="evenodd" clip-rule="evenodd" d="M125.213 177.227L126.395 179.012L125.213 207.349H123.913L125.213 177.227Z" fill="url(#paint91_linear_2_716)"/>
<path d="M110.018 183.291C110.018 183.291 114.339 183.12 115.114 183.474C115.875 183.829 114.917 190.877 114.917 190.877L116.637 192.465L115.022 194.027C115.022 194.027 115.101 201.167 114.089 201.758C113.065 202.348 109.598 201.758 109.598 201.758V199.973C109.598 199.973 112.434 200.156 112.907 199.776C113.38 199.395 113.328 193.161 113.328 193.161L114.089 192.321L113.328 191.415C113.328 191.415 113.472 186.966 113.38 185.745C113.328 184.931 110.018 184.892 110.018 184.892V183.291Z" fill="white"/>
<path d="M100.102 183.291C100.102 183.291 95.7814 183.12 95.0065 183.474C94.2448 183.829 95.2035 190.877 95.2035 190.877L93.4831 192.465L95.0985 194.027C95.0985 194.027 95.0197 201.167 96.0309 201.758C97.0422 202.348 100.523 201.758 100.523 201.758V199.973C100.523 199.973 97.6857 200.156 97.2129 199.776C96.7401 199.395 96.7927 193.161 96.7927 193.161L96.0309 192.321L96.7927 191.415C96.7927 191.415 96.6482 186.966 96.7401 185.745C96.7927 184.931 100.102 184.892 100.102 184.892V183.291Z" fill="white"/>
<path d="M456.856 114.621L447.19 89.3288L472.262 94.5657L456.856 114.621ZM448.228 90.2213L457.053 113.295L471.106 94.9988L448.228 90.2213Z" fill="#744CA2"/>
<path d="M534.109 461.229L525.615 472.809L526.145 473.197L534.639 461.617L534.109 461.229Z" fill="#744CA2"/>
<path d="M446.428 366.398L437.301 355.044L437.813 354.638L446.94 365.991L446.428 366.398Z" fill="#744CA2"/>
<path d="M164.942 446.093L146.726 432.889L147.106 432.364L165.322 445.568L164.942 446.093Z" fill="#744CA2"/>
<path d="M162.587 430.102L148.953 447.987L149.476 448.385L163.109 430.499L162.587 430.102Z" fill="#744CA2"/>
<path d="M124.052 245.713L123.747 246.294L135.535 252.484L135.84 251.903L124.052 245.713Z" fill="#744CA2"/>
<path d="M588.439 93.6731L587.953 93.24L601.572 77.7132L602.058 78.1463L588.439 93.6731Z" fill="#744CA2"/>
<path d="M323.84 131.224L323.252 131.517L329.338 143.751L329.926 143.459L323.84 131.224Z" fill="#744CA2"/>
<path d="M242.556 337.051L226.902 350.137L227.323 350.641L242.977 337.555L242.556 337.051Z" fill="#744CA2"/>
</g>
<defs>
<linearGradient id="paint0_linear_2_716" x1="220.815" y1="320.094" x2="181.28" y2="235.422" gradientUnits="userSpaceOnUse">
<stop stop-color="#DBCCFF"/>
<stop offset="1" stop-color="#D1BBFF"/>
</linearGradient>
<linearGradient id="paint1_linear_2_716" x1="222.354" y1="323.399" x2="182.819" y2="238.727" gradientUnits="userSpaceOnUse">
<stop stop-color="#B5A6E7"/>
<stop offset="1" stop-color="#7760BF"/>
</linearGradient>
<linearGradient id="paint2_linear_2_716" x1="212.515" y1="302.352" x2="195.85" y2="266.662" gradientUnits="userSpaceOnUse">
<stop stop-color="#B5A6E7"/>
<stop offset="1" stop-color="#7760BF"/>
</linearGradient>
<linearGradient id="paint3_linear_2_716" x1="191.1" y1="269.751" x2="201.231" y2="265.014" gradientUnits="userSpaceOnUse">
<stop stop-color="#8B8BE0"/>
<stop offset="1" stop-color="#A177B7"/>
</linearGradient>
<linearGradient id="paint4_linear_2_716" x1="197.266" y1="269.736" x2="194.403" y2="263.604" gradientUnits="userSpaceOnUse">
<stop stop-color="white"/>
<stop offset="1" stop-color="#A177B7"/>
</linearGradient>
<linearGradient id="paint5_linear_2_716" x1="219.577" y1="303.493" x2="201.206" y2="264.147" gradientUnits="userSpaceOnUse">
<stop/>
<stop offset="1" stop-color="white"/>
</linearGradient>
<linearGradient id="paint6_linear_2_716" x1="368.127" y1="525" x2="368.127" y2="407.912" gradientUnits="userSpaceOnUse">
<stop stop-color="#6456C0"/>
<stop offset="1" stop-color="#5F2C95"/>
</linearGradient>
<radialGradient id="paint7_radial_2_716" cx="0" cy="0" r="1" gradientUnits="userSpaceOnUse" gradientTransform="translate(311.075 482.89) rotate(12.9847) scale(23.5397 60.785)">
<stop stop-color="#4B474B"/>
<stop offset="1"/>
</radialGradient>
<radialGradient id="paint8_radial_2_716" cx="0" cy="0" r="1" gradientUnits="userSpaceOnUse" gradientTransform="translate(420.345 482.3) rotate(-15.6488) scale(23.5401 60.7842)">
<stop stop-color="#4B474B"/>
<stop offset="1"/>
</radialGradient>
<linearGradient id="paint9_linear_2_716" x1="330.208" y1="483.895" x2="360.936" y2="483.895" gradientUnits="userSpaceOnUse">
<stop stop-color="#9E8CEF"/>
<stop offset="1" stop-color="#CAAFEE"/>
</linearGradient>
<linearGradient id="paint10_linear_2_716" x1="402.015" y1="483.896" x2="371.283" y2="483.896" gradientUnits="userSpaceOnUse">
<stop stop-color="#9E8CEF"/>
<stop offset="1" stop-color="#CAAFEE"/>
</linearGradient>
<linearGradient id="paint11_linear_2_716" x1="364.003" y1="525" x2="364.003" y2="407.912" gradientUnits="userSpaceOnUse">
<stop stop-color="#CCCCFF"/>
<stop offset="1" stop-color="#755CBB"/>
</linearGradient>
<linearGradient id="paint12_linear_2_716" x1="377.643" y1="466.456" x2="377.643" y2="434.52" gradientUnits="userSpaceOnUse">
<stop stop-color="#CCCCFF"/>
<stop offset="1" stop-color="#755CBB"/>
</linearGradient>
<linearGradient id="paint13_linear_2_716" x1="340.63" y1="454.712" x2="340.63" y2="423.424" gradientUnits="userSpaceOnUse">
<stop stop-color="#CCCCFF"/>
<stop offset="1" stop-color="#755CBB"/>
</linearGradient>
<linearGradient id="paint14_linear_2_716" x1="372.385" y1="231.591" x2="372.385" y2="184.852" gradientUnits="userSpaceOnUse">
<stop stop-color="#D5CDF8"/>
<stop offset="1" stop-color="#F3EDFB"/>
</linearGradient>
<linearGradient id="paint15_linear_2_716" x1="348.309" y1="208.176" x2="396.461" y2="208.176" gradientUnits="userSpaceOnUse">
<stop stop-color="#CCCCFF"/>
<stop offset="1" stop-color="#755CBB"/>
</linearGradient>
<linearGradient id="paint16_linear_2_716" x1="358.616" y1="418.332" x2="358.616" y2="182.818" gradientUnits="userSpaceOnUse">
<stop stop-color="#9E8CEF"/>
<stop offset="1" stop-color="#CAAFEE"/>
</linearGradient>
<linearGradient id="paint17_linear_2_716" x1="260.815" y1="271.576" x2="318.208" y2="271.576" gradientUnits="userSpaceOnUse">
<stop stop-color="#CCCCFF"/>
<stop offset="1" stop-color="#755CBB"/>
</linearGradient>
<linearGradient id="paint18_linear_2_716" x1="259.04" y1="337.536" x2="259.04" y2="227.404" gradientUnits="userSpaceOnUse">
<stop stop-color="#9E8CEF"/>
<stop offset="1" stop-color="#DAC7F3"/>
</linearGradient>
<linearGradient id="paint19_linear_2_716" x1="448.543" y1="305.794" x2="522.491" y2="305.794" gradientUnits="userSpaceOnUse">
<stop stop-color="#A999F1"/>
<stop offset="1" stop-color="#DAC7F3"/>
</linearGradient>
<linearGradient id="paint20_linear_2_716" x1="234.986" y1="212.387" x2="234.986" y2="183.348" gradientUnits="userSpaceOnUse">
<stop offset="0.016" stop-color="#FFC2A9"/>
<stop offset="1" stop-color="#FF9595"/>
</linearGradient>
<linearGradient id="paint21_linear_2_716" x1="253.283" y1="211.699" x2="253.283" y2="163.631" gradientUnits="userSpaceOnUse">
<stop stop-color="#FFEADB"/>
<stop offset="0.9944" stop-color="#C27CB6"/>
</linearGradient>
<linearGradient id="paint22_linear_2_716" x1="251.722" y1="244.401" x2="251.722" y2="170.297" gradientUnits="userSpaceOnUse">
<stop offset="0.016" stop-color="#FFC2A9"/>
<stop offset="1" stop-color="#FF9595"/>
</linearGradient>
<linearGradient id="paint23_linear_2_716" x1="238.462" y1="232.837" x2="261.776" y2="232.837" gradientUnits="userSpaceOnUse">
<stop offset="0.016" stop-color="#D1A1D6"/>
<stop offset="0.9944" stop-color="#BD89C4"/>
</linearGradient>
<linearGradient id="paint24_linear_2_716" x1="524.015" y1="289.538" x2="524.015" y2="190.442" gradientUnits="userSpaceOnUse">
<stop offset="0.016" stop-color="#FFC2A9"/>
<stop offset="1" stop-color="#FF9595"/>
</linearGradient>
<linearGradient id="paint25_linear_2_716" x1="535.729" y1="257.788" x2="535.729" y2="208.556" gradientUnits="userSpaceOnUse">
<stop stop-color="#FFEADB"/>
<stop offset="0.9944" stop-color="#C27CB6"/>
</linearGradient>
<linearGradient id="paint26_linear_2_716" x1="545.448" y1="240.795" x2="545.448" y2="218.726" gradientUnits="userSpaceOnUse">
<stop stop-color="#FFB0B0"/>
<stop offset="0.984" stop-color="#FFC2A9"/>
</linearGradient>
<linearGradient id="paint27_linear_2_716" x1="558.257" y1="244.194" x2="558.257" y2="232.091" gradientUnits="userSpaceOnUse">
<stop stop-color="#FFB0B0"/>
<stop offset="0.984" stop-color="#FFC2A9"/>
</linearGradient>
<linearGradient id="paint28_linear_2_716" x1="506.461" y1="268.316" x2="528.984" y2="268.316" gradientUnits="userSpaceOnUse">
<stop offset="0.016" stop-color="#D1A1D6"/>
<stop offset="0.9944" stop-color="#BD89C4"/>
</linearGradient>
<linearGradient id="paint29_linear_2_716" x1="475.115" y1="346.003" x2="475.115" y2="235.082" gradientUnits="userSpaceOnUse">
<stop stop-color="#CCCCFF"/>
<stop offset="1" stop-color="#755CBB"/>
</linearGradient>
<linearGradient id="paint30_linear_2_716" x1="230.74" y1="323.655" x2="416.379" y2="323.655" gradientUnits="userSpaceOnUse">
<stop stop-color="#CCCCFF"/>
<stop offset="1" stop-color="#755CBB"/>
</linearGradient>
<linearGradient id="paint31_linear_2_716" x1="394.401" y1="292.611" x2="429.885" y2="292.611" gradientUnits="userSpaceOnUse">
<stop stop-color="#CCEDFF"/>
<stop offset="1" stop-color="#755CBB"/>
</linearGradient>
<linearGradient id="paint32_linear_2_716" x1="362.217" y1="354.845" x2="414.365" y2="354.845" gradientUnits="userSpaceOnUse">
<stop stop-color="#CCEDFF"/>
<stop offset="1" stop-color="#755CBB"/>
</linearGradient>
<linearGradient id="paint33_linear_2_716" x1="364.632" y1="378.409" x2="420.345" y2="378.409" gradientUnits="userSpaceOnUse">
<stop stop-color="#CCEDFF"/>
<stop offset="1" stop-color="#755CBB"/>
</linearGradient>
<linearGradient id="paint34_linear_2_716" x1="316.684" y1="320.066" x2="316.684" y2="257.578" gradientUnits="userSpaceOnUse">
<stop stop-color="#CCEDFF"/>
<stop offset="1" stop-color="#755CBB"/>
</linearGradient>
<linearGradient id="paint35_linear_2_716" x1="321.718" y1="325.319" x2="321.718" y2="277.951" gradientUnits="userSpaceOnUse">
<stop stop-color="#CCEDFF"/>
<stop offset="1" stop-color="#755CBB"/>
</linearGradient>
<linearGradient id="paint36_linear_2_716" x1="246.808" y1="264.767" x2="246.808" y2="228.979" gradientUnits="userSpaceOnUse">
<stop stop-color="#CCEDFF"/>
<stop offset="1" stop-color="#755CBB"/>
</linearGradient>
<linearGradient id="paint37_linear_2_716" x1="275.787" y1="233.251" x2="290.219" y2="233.251" gradientUnits="userSpaceOnUse">
<stop stop-color="#CCEDFF"/>
<stop offset="1" stop-color="#755CBB"/>
</linearGradient>
<linearGradient id="paint38_linear_2_716" x1="432.674" y1="320.066" x2="432.674" y2="253.733" gradientUnits="userSpaceOnUse">
<stop stop-color="#CCCCFF"/>
<stop offset="1" stop-color="#755CBB"/>
</linearGradient>
<linearGradient id="paint39_linear_2_716" x1="507.299" y1="305.799" x2="507.299" y2="271.136" gradientUnits="userSpaceOnUse">
<stop stop-color="#CCCCFF"/>
<stop offset="1" stop-color="#755CBB"/>
</linearGradient>
<linearGradient id="paint40_linear_2_716" x1="467.961" y1="304.251" x2="467.961" y2="277.751" gradientUnits="userSpaceOnUse">
<stop stop-color="#CCCCFF"/>
<stop offset="1" stop-color="#755CBB"/>
</linearGradient>
<linearGradient id="paint41_linear_2_716" x1="239.312" y1="267.052" x2="239.312" y2="257.211" gradientUnits="userSpaceOnUse">
<stop stop-color="#CCEDFF"/>
<stop offset="1" stop-color="#755CBB"/>
</linearGradient>
<linearGradient id="paint42_linear_2_716" x1="265.617" y1="297.054" x2="265.617" y2="243.272" gradientUnits="userSpaceOnUse">
<stop stop-color="#CCCCFF"/>
<stop offset="1" stop-color="#755CBB"/>
</linearGradient>
<linearGradient id="paint43_linear_2_716" x1="404.073" y1="259.198" x2="404.073" y2="218.726" gradientUnits="userSpaceOnUse">
<stop stop-color="#CCEDFF"/>
<stop offset="1" stop-color="#755CBB"/>
</linearGradient>
<linearGradient id="paint44_linear_2_716" x1="351.017" y1="253.727" x2="351.017" y2="197.868" gradientUnits="userSpaceOnUse">
<stop stop-color="#CCEDFF"/>
<stop offset="1" stop-color="#755CBB"/>
</linearGradient>
<linearGradient id="paint45_linear_2_716" x1="340.193" y1="210.105" x2="400.948" y2="210.105" gradientUnits="userSpaceOnUse">
<stop stop-color="#CCCCFF"/>
<stop offset="1" stop-color="#755CBB"/>
</linearGradient>
<linearGradient id="paint46_linear_2_716" x1="496.376" y1="301.847" x2="496.376" y2="266.71" gradientUnits="userSpaceOnUse">
<stop stop-color="#CCCCFF"/>
<stop offset="1" stop-color="#755CBB"/>
</linearGradient>
<linearGradient id="paint47_linear_2_716" x1="446.678" y1="341.486" x2="446.678" y2="235.082" gradientUnits="userSpaceOnUse">
<stop stop-color="#CCCCFF"/>
<stop offset="1" stop-color="#755CBB"/>
</linearGradient>
<linearGradient id="paint48_linear_2_716" x1="332.208" y1="391.466" x2="332.208" y2="360.964" gradientUnits="userSpaceOnUse">
<stop stop-color="#CCCCFF"/>
<stop offset="1" stop-color="#755CBB"/>
</linearGradient>
<linearGradient id="paint49_linear_2_716" x1="391.498" y1="383.087" x2="391.498" y2="368.274" gradientUnits="userSpaceOnUse">
<stop stop-color="#CCCCFF"/>
<stop offset="1" stop-color="#755CBB"/>
</linearGradient>
<linearGradient id="paint50_linear_2_716" x1="390.845" y1="192.691" x2="390.845" y2="91.3564" gradientUnits="userSpaceOnUse">
<stop offset="0.016" stop-color="#FFC2A9"/>
<stop offset="1" stop-color="#FF9595"/>
</linearGradient>
<linearGradient id="paint51_linear_2_716" x1="417.31" y1="142.026" x2="417.31" y2="116.703" gradientUnits="userSpaceOnUse">
<stop stop-color="#FFEADB"/>
<stop offset="0.9944" stop-color="#C27CB6"/>
</linearGradient>
<linearGradient id="paint52_linear_2_716" x1="353.044" y1="151.8" x2="353.044" y2="121.924" gradientUnits="userSpaceOnUse">
<stop offset="0.016" stop-color="#FFC2A9"/>
<stop offset="1" stop-color="#FF9595"/>
</linearGradient>
<linearGradient id="paint53_linear_2_716" x1="404.938" y1="163.098" x2="406.19" y2="156.576" gradientUnits="userSpaceOnUse">
<stop stop-color="#E1616A"/>
<stop offset="1" stop-color="#FF8883"/>
</linearGradient>
<linearGradient id="paint54_linear_2_716" x1="393.624" y1="158.108" x2="393.624" y2="92.8283" gradientUnits="userSpaceOnUse">
<stop stop-color="#FFEADB"/>
<stop offset="0.9944" stop-color="#C27CB6"/>
</linearGradient>
<linearGradient id="paint55_linear_2_716" x1="390.44" y1="131.374" x2="390.44" y2="118.443" gradientUnits="userSpaceOnUse">
<stop stop-color="#CF6074"/>
<stop offset="1" stop-color="#F37270"/>
</linearGradient>
<linearGradient id="paint56_linear_2_716" x1="416.25" y1="135.478" x2="416.25" y2="124.225" gradientUnits="userSpaceOnUse">
<stop stop-color="#CF6074"/>
<stop offset="1" stop-color="#FF817F"/>
</linearGradient>
<linearGradient id="paint57_linear_2_716" x1="392.205" y1="193.965" x2="392.205" y2="71.0719" gradientUnits="userSpaceOnUse">
<stop stop-color="#2E33A0"/>
<stop offset="1" stop-color="#0665A5"/>
</linearGradient>
<linearGradient id="paint58_linear_2_716" x1="424.504" y1="116.576" x2="424.504" y2="88.2262" gradientUnits="userSpaceOnUse">
<stop stop-color="#FFEADB"/>
<stop offset="0.9944" stop-color="#8860C7"/>
</linearGradient>
<linearGradient id="paint59_linear_2_716" x1="385.847" y1="193.965" x2="385.847" y2="71.0719" gradientUnits="userSpaceOnUse">
<stop stop-color="#CCC2DB"/>
<stop offset="0.9944" stop-color="#8860C7"/>
</linearGradient>
<linearGradient id="paint60_linear_2_716" x1="394.092" y1="193.936" x2="394.092" y2="188.656" gradientUnits="userSpaceOnUse">
<stop stop-color="#776D7E"/>
<stop offset="1" stop-color="#9D68C2"/>
</linearGradient>
<linearGradient id="paint61_linear_2_716" x1="409.593" y1="79.8919" x2="409.593" y2="75.9692" gradientUnits="userSpaceOnUse">
<stop stop-color="#1F77D1"/>
<stop offset="1" stop-color="#0686C9"/>
</linearGradient>
<linearGradient id="paint62_linear_2_716" x1="384.588" y1="92.8069" x2="384.588" y2="81.2088" gradientUnits="userSpaceOnUse">
<stop stop-color="#1F77D1"/>
<stop offset="1" stop-color="#0686C9"/>
</linearGradient>
<linearGradient id="paint63_linear_2_716" x1="426.643" y1="98.6869" x2="426.643" y2="88.2262" gradientUnits="userSpaceOnUse">
<stop stop-color="#1F77D1"/>
<stop offset="1" stop-color="#0686C9"/>
</linearGradient>
<linearGradient id="paint64_linear_2_716" x1="357.398" y1="144.719" x2="344.018" y2="128.316" gradientUnits="userSpaceOnUse">
<stop stop-color="#FFEADB"/>
<stop offset="0.9944" stop-color="#B060F4"/>
</linearGradient>
<linearGradient id="paint65_linear_2_716" x1="358.8" y1="142.607" x2="352.216" y2="134.537" gradientUnits="userSpaceOnUse">
<stop stop-color="#FFEADB"/>
<stop offset="0.9944" stop-color="#B060F4"/>
</linearGradient>
<linearGradient id="paint66_linear_2_716" x1="383.813" y1="93.8443" x2="406.49" y2="93.8443" gradientUnits="userSpaceOnUse">
<stop stop-color="#1F77D1"/>
<stop offset="1" stop-color="#0686C9"/>
</linearGradient>
<linearGradient id="paint67_linear_2_716" x1="415.798" y1="161.62" x2="422.676" y2="161.62" gradientUnits="userSpaceOnUse">
<stop stop-color="#1F77D1"/>
<stop offset="1" stop-color="#0686C9"/>
</linearGradient>
<linearGradient id="paint68_linear_2_716" x1="407.306" y1="156.508" x2="414.725" y2="156.508" gradientUnits="userSpaceOnUse">
<stop stop-color="#1F77D1"/>
<stop offset="1" stop-color="#0686C9"/>
</linearGradient>
<linearGradient id="paint69_linear_2_716" x1="462.025" y1="174.492" x2="694.562" y2="174.492" gradientUnits="userSpaceOnUse">
<stop stop-color="#9D68C2"/>
<stop offset="1" stop-color="#AEC2FF"/>
</linearGradient>
<linearGradient id="paint70_linear_2_716" x1="509.329" y1="262.263" x2="509.329" y2="192.173" gradientUnits="userSpaceOnUse">
<stop stop-color="#CCEDFF"/>
<stop offset="1" stop-color="#9D68C2"/>
</linearGradient>
<linearGradient id="paint71_linear_2_716" x1="628.92" y1="228.091" x2="628.92" y2="197.217" gradientUnits="userSpaceOnUse">
<stop stop-color="#CCEDFF"/>
<stop offset="1" stop-color="#9D68C2"/>
</linearGradient>
<linearGradient id="paint72_linear_2_716" x1="665.369" y1="228.091" x2="665.369" y2="197.217" gradientUnits="userSpaceOnUse">
<stop stop-color="#CCEDFF"/>
<stop offset="1" stop-color="#9D68C2"/>
</linearGradient>
<linearGradient id="paint73_linear_2_716" x1="591.861" y1="228.091" x2="591.861" y2="197.217" gradientUnits="userSpaceOnUse">
<stop stop-color="#CCEDFF"/>
<stop offset="1" stop-color="#9D68C2"/>
</linearGradient>
<linearGradient id="paint74_linear_2_716" x1="259.604" y1="152.233" x2="259.604" y2="119.917" gradientUnits="userSpaceOnUse">
<stop stop-color="#3DE3C5"/>
<stop offset="1" stop-color="#6DFFA7"/>
</linearGradient>
<linearGradient id="paint75_linear_2_716" x1="279.37" y1="152.233" x2="279.37" y2="119.917" gradientUnits="userSpaceOnUse">
<stop stop-color="#42E0EA"/>
<stop offset="1" stop-color="#11FEE2"/>
</linearGradient>
<linearGradient id="paint76_linear_2_716" x1="253.992" y1="492.673" x2="271.458" y2="353.527" gradientUnits="userSpaceOnUse">
<stop stop-color="#067EFF"/>
<stop offset="1" stop-color="#3E37A0"/>
</linearGradient>
<linearGradient id="paint77_linear_2_716" x1="662.247" y1="148.717" x2="662.247" y2="136.987" gradientUnits="userSpaceOnUse">
<stop stop-color="#459FFF"/>
<stop offset="1" stop-color="#A96DFF"/>
</linearGradient>
<linearGradient id="paint78_linear_2_716" x1="110.656" y1="286.175" x2="110.656" y2="271.576" gradientUnits="userSpaceOnUse">
<stop stop-color="#459FFF"/>
<stop offset="1" stop-color="#A96DFF"/>
</linearGradient>
<linearGradient id="paint79_linear_2_716" x1="679.485" y1="148.717" x2="679.485" y2="136.987" gradientUnits="userSpaceOnUse">
<stop stop-color="#1AB3B3"/>
<stop offset="1" stop-color="#11FEF0"/>
</linearGradient>
<linearGradient id="paint80_linear_2_716" x1="301.02" y1="187.327" x2="301.02" y2="179.033" gradientUnits="userSpaceOnUse">
<stop stop-color="#1AB360"/>
<stop offset="1" stop-color="#11FEFE"/>
</linearGradient>
<linearGradient id="paint81_linear_2_716" x1="578.996" y1="370.339" x2="578.996" y2="362.045" gradientUnits="userSpaceOnUse">
<stop stop-color="#8642A0"/>
<stop offset="1" stop-color="#6456C0"/>
</linearGradient>
<linearGradient id="paint82_linear_2_716" x1="147.538" y1="411.249" x2="147.538" y2="403.834" gradientUnits="userSpaceOnUse">
<stop stop-color="#8642A0"/>
<stop offset="1" stop-color="#6456C0"/>
</linearGradient>
<linearGradient id="paint83_linear_2_716" x1="178.669" y1="371.137" x2="178.669" y2="309.893" gradientUnits="userSpaceOnUse">
<stop stop-color="#06E3BB"/>
<stop offset="1" stop-color="#6DFFF6"/>
</linearGradient>
<linearGradient id="paint84_linear_2_716" x1="601.814" y1="457.828" x2="601.814" y2="381.212" gradientUnits="userSpaceOnUse">
<stop stop-color="#06D6E3"/>
<stop offset="1" stop-color="#6DFFED"/>
</linearGradient>
<linearGradient id="paint85_linear_2_716" x1="502.34" y1="414.985" x2="510.599" y2="359.182" gradientUnits="userSpaceOnUse">
<stop stop-color="#1852A0"/>
<stop offset="1" stop-color="#067ED3"/>
</linearGradient>
<linearGradient id="paint86_linear_2_716" x1="496.17" y1="413.545" x2="511.09" y2="358.1" gradientUnits="userSpaceOnUse">
<stop stop-color="#1852A0"/>
<stop offset="1" stop-color="#067ED3"/>
</linearGradient>
<linearGradient id="paint87_linear_2_716" x1="489.155" y1="411.255" x2="497.962" y2="355.083" gradientUnits="userSpaceOnUse">
<stop stop-color="#188DC1"/>
<stop offset="1" stop-color="#06BFE7"/>
</linearGradient>
<linearGradient id="paint88_linear_2_716" x1="541.555" y1="115.628" x2="556.419" y2="60.3889" gradientUnits="userSpaceOnUse">
<stop stop-color="#188DC1"/>
<stop offset="1" stop-color="#06BFE7"/>
</linearGradient>
<linearGradient id="paint89_linear_2_716" x1="515.974" y1="109.256" x2="527.059" y2="68.0633" gradientUnits="userSpaceOnUse">
<stop stop-color="#1852A0"/>
<stop offset="1" stop-color="#067ED3"/>
</linearGradient>
<linearGradient id="paint90_linear_2_716" x1="111.281" y1="210.749" x2="101.147" y2="173.092" gradientUnits="userSpaceOnUse">
<stop stop-color="#188DC1"/>
<stop offset="1" stop-color="#06BFE7"/>
</linearGradient>
<linearGradient id="paint91_linear_2_716" x1="128.72" y1="206.405" x2="121.163" y2="178.323" gradientUnits="userSpaceOnUse">
<stop stop-color="#1852A0"/>
<stop offset="1" stop-color="#067ED3"/>
</linearGradient>
<clipPath id="clip0_2_716">
<rect width="788" height="525" fill="white"/>
</clipPath>
</defs>
</svg>
