<svg width="35" height="35" viewBox="0 0 35 35" fill="none" xmlns="http://www.w3.org/2000/svg">
<path d="M17.5 35C27.165 35 35 27.165 35 17.5C35 7.83502 27.165 0 17.5 0C7.83502 0 0 7.83502 0 17.5C0 27.165 7.83502 35 17.5 35Z" fill="#6DA544"/>
<path d="M17.5 6.84784L31.9565 17.5L17.5 28.1522L3.04346 17.5L17.5 6.84784Z" fill="#FFDA44"/>
<path d="M17.5 23.5869C20.8617 23.5869 23.5869 20.8617 23.5869 17.5C23.5869 14.1383 20.8617 11.4131 17.5 11.4131C14.1383 11.4131 11.4131 14.1383 11.4131 17.5C11.4131 20.8617 14.1383 23.5869 17.5 23.5869Z" fill="#F0F0F0"/>
<path d="M14.4566 17.1196C13.3981 17.1196 12.3766 17.2806 11.415 17.5793C11.4576 20.9043 14.1649 23.587 17.5 23.587C19.5623 23.587 21.3837 22.5605 22.4847 20.9915C20.601 18.6333 17.7025 17.1196 14.4566 17.1196Z" fill="#0052B4"/>
<path d="M23.4741 18.6662C23.5474 18.2886 23.587 17.899 23.587 17.5C23.587 14.1382 20.8618 11.4131 17.5001 11.4131C14.9917 11.4131 12.8384 12.9307 11.9065 15.0976C12.7302 14.9269 13.5831 14.837 14.4566 14.837C17.992 14.8369 21.1902 16.3065 23.4741 18.6662Z" fill="#0052B4"/>
</svg>
