<svg width="34" height="35" viewBox="0 0 34 35" fill="none" xmlns="http://www.w3.org/2000/svg">
<g clip-path="url(#clip0_124_1253)">
<path d="M17 35C26.3888 35 34 27.165 34 17.5C34 7.83502 26.3888 0 17 0C7.61116 0 0 7.83502 0 17.5C0 27.165 7.61116 35 17 35Z" fill="#F0F0F0"/>
<path d="M16.261 17.5H34.0001C34.0001 15.9205 33.7956 14.3903 33.4145 12.9347H16.261V17.5Z" fill="#D80027"/>
<path d="M16.261 8.36956H31.5049C30.4643 6.62148 29.1337 5.07635 27.5823 3.80432H16.261V8.36956Z" fill="#D80027"/>
<path d="M17.0001 35C21.001 35 24.6784 33.5765 27.5823 31.1956H6.41785C9.32179 33.5765 12.9992 35 17.0001 35Z" fill="#D80027"/>
<path d="M2.4952 26.6304H31.5049C32.3404 25.227 32.9883 23.6931 33.4144 22.0652H0.585693C1.01182 23.6931 1.65975 25.227 2.4952 26.6304Z" fill="#D80027"/>
<path d="M7.87472 2.73287H9.42391L7.98289 3.81056L8.53334 5.55434L7.09239 4.47665L5.65144 5.55434L6.12691 4.0479C4.85815 5.13584 3.74611 6.41047 2.8297 7.8307H3.32609L2.40882 8.51669C2.26591 8.7621 2.12885 9.01141 1.9975 9.2644L2.43552 10.6522L1.61832 10.041C1.41518 10.484 1.22938 10.937 1.06237 11.3995L1.54494 12.9285H3.32609L1.88507 14.0062L2.43552 15.75L0.994566 14.6723L0.131418 15.3179C0.0450234 16.0328 0 16.761 0 17.5H17C17 7.83508 17 6.69566 17 0C13.6417 0 10.5111 1.00283 7.87472 2.73287ZM8.53334 15.75L7.09239 14.6723L5.65144 15.75L6.20188 14.0062L4.76086 12.9285H6.54201L7.09239 11.1848L7.64276 12.9285H9.42391L7.98289 14.0062L8.53334 15.75ZM7.98289 8.90839L8.53334 10.6522L7.09239 9.57448L5.65144 10.6522L6.20188 8.90839L4.76086 7.8307H6.54201L7.09239 6.08692L7.64276 7.8307H9.42391L7.98289 8.90839ZM14.6312 15.75L13.1902 14.6723L11.7493 15.75L12.2997 14.0062L10.8587 12.9285H12.6398L13.1902 11.1848L13.7406 12.9285H15.5217L14.0807 14.0062L14.6312 15.75ZM14.0807 8.90839L14.6312 10.6522L13.1902 9.57448L11.7493 10.6522L12.2997 8.90839L10.8587 7.8307H12.6398L13.1902 6.08692L13.7406 7.8307H15.5217L14.0807 8.90839ZM14.0807 3.81056L14.6312 5.55434L13.1902 4.47665L11.7493 5.55434L12.2997 3.81056L10.8587 2.73287H12.6398L13.1902 0.989092L13.7406 2.73287H15.5217L14.0807 3.81056Z" fill="#0052B4"/>
</g>
<defs>
<clipPath id="clip0_124_1253">
<rect width="34" height="35" fill="white"/>
</clipPath>
</defs>
</svg>
