<svg width="45" height="43" viewBox="0 0 45 43" fill="none" xmlns="http://www.w3.org/2000/svg">
<path d="M36.4075 11.5656C33.1554 11.5656 31.4745 14.8584 30.2373 17.2129C28.4804 20.556 26.4768 23.7579 24.3325 26.8972C23.8079 27.666 23.2833 28.032 24.2303 28.5405C24.8471 28.8721 26.2438 28.7088 26.9391 28.71C28.8704 28.7149 30.7942 28.5159 32.7255 28.5233C33.5155 28.527 34.3229 28.527 35.0705 28.2899C36.4772 27.8441 37.4429 26.6294 38.0534 25.3705C39.1823 23.0456 40.0657 20.6543 41.2843 18.3563C42.5976 15.8778 43.9308 13.3784 44.4342 10.6285C44.8018 8.62166 44.7681 6.44653 43.6554 4.69389C42.6499 3.10953 40.8632 2.05451 38.9767 1.49691C37.0903 0.939307 35.0892 0.827542 33.1118 0.750166C26.4095 0.48856 19.6973 0.58436 12.9889 0.680159C8.7861 0.74034 4.58209 0.800522 0.379333 0.860703C3.10932 4.40036 5.7658 7.98668 8.43348 11.5656C8.43473 11.5656 36.1645 11.5656 36.4075 11.5656Z" fill="url(#paint0_linear_2_39)"/>
<path d="M26.103 15.2404C26.103 15.2404 11.151 42.5394 11.1473 42.5468C11.2719 42.3196 8.30766 39.2295 8.04101 38.9077C6.5483 37.1047 4.92601 35.2845 4.61202 32.9411C4.31049 30.6849 5.32473 28.4472 6.6268 26.5226C9.32564 22.5334 12.1728 18.6278 14.8679 14.6288H26.569L26.103 15.2404Z" fill="url(#paint1_linear_2_39)"/>
<defs>
<linearGradient id="paint0_linear_2_39" x1="0.380044" y1="14.6651" x2="44.6447" y2="14.6651" gradientUnits="userSpaceOnUse">
<stop stop-color="#322C67"/>
<stop offset="0.4364" stop-color="#378196"/>
<stop offset="0.7179" stop-color="#4BB9AD"/>
</linearGradient>
<linearGradient id="paint1_linear_2_39" x1="4.55786" y1="28.5868" x2="26.5681" y2="28.5868" gradientUnits="userSpaceOnUse">
<stop stop-color="#322C67"/>
<stop offset="0.4364" stop-color="#378196"/>
<stop offset="0.7179" stop-color="#4BB9AD"/>
</linearGradient>
</defs>
</svg>
